<svg width="90" height="90" viewBox="0 0 90 90" fill="none" xmlns="http://www.w3.org/2000/svg">
<rect x="4" y="4" width="81" height="81" fill="#D9D9D9"/>
<path d="M80.3571 0H9.64286C4.3192 0 0 4.3192 0 9.64286V80.3571C0 85.6808 4.3192 90 9.64286 90H80.3571C85.6808 90 90 85.6808 90 80.3571V9.64286C90 4.3192 85.6808 0 80.3571 0ZM25.5134 70.8147C24.4085 72.7433 21.9375 73.3862 20.029 72.2812C18.1004 71.1763 17.4576 68.7054 18.5625 66.7969L21.4353 61.8348C24.6696 60.8504 27.3214 61.6138 29.3906 64.125L25.5134 70.8147ZM53.4174 59.9866H16.875C14.6652 59.9866 12.8571 58.1786 12.8571 55.9688C12.8571 53.7589 14.6652 51.9509 16.875 51.9509H27.1205L40.2589 29.2098L36.1406 22.0982C35.0357 20.1696 35.6987 17.7187 37.6071 16.6138C39.5357 15.5089 41.9866 16.1719 43.0915 18.0804L44.8795 21.1741L46.6674 18.0804C47.7723 16.1518 50.2433 15.5089 52.1518 16.6138C54.0804 17.7187 54.7232 20.1897 53.6183 22.0982L36.3817 51.9509H48.8571C52.9152 51.9509 55.1853 56.7121 53.4174 59.9866ZM73.125 59.9866H67.2991L71.2366 66.7969C72.3415 68.7254 71.6786 71.1763 69.7701 72.2812C67.8415 73.3862 65.3906 72.7232 64.2857 70.8147C57.6763 59.3839 52.7344 50.7857 49.4196 45.0804C46.0647 39.2545 48.4554 33.4286 50.846 31.4598C53.4777 36.0201 57.4152 42.8504 62.6786 51.9509H73.125C75.3348 51.9509 77.1429 53.7589 77.1429 55.9688C77.1429 58.1987 75.3348 59.9866 73.125 59.9866Z" fill="#1C69F1"/>
</svg>
