<svg width="117" height="117" viewBox="0 0 117 117" fill="none" xmlns="http://www.w3.org/2000/svg">
<path d="M79.394 79.3929H100.287V100.286H79.394V79.3929ZM62.6797 62.6786H79.394V79.3929H62.6797V62.6786ZM100.287 100.286H117.001V117H100.287V100.286ZM104.465 62.6786H117.001V75.2144H104.465V62.6786ZM62.6797 104.464H75.2154V117H62.6797V104.464ZM79.394 16.7144H100.287V37.6072H79.394V16.7144Z" fill="#F9DB10"/>
<path d="M73.6702 42.8304V43.3304H74.1702H105.509H106.009V42.8304V11.4911V10.9911H105.509H74.1702H73.6702V11.4911V42.8304ZM116.501 53.8214H63.1791V0.5H116.501V53.8214ZM17.2148 17.2143H37.1077V37.1071H17.2148V17.2143Z" fill="#F9DB10" stroke="#1A1A23"/>
<path d="M10.9911 42.8304V43.3304H11.4911H42.8304H43.3304V42.8304V11.4911V10.9911H42.8304H11.4911H10.9911V11.4911V42.8304ZM53.8214 53.8214H0.5V0.5H53.8214V53.8214ZM17.2143 79.8929H37.1071V99.7857H17.2143V79.8929Z" fill="#F9DB10" stroke="#1A1A23"/>
<path d="M10.9911 105.509V106.009H11.4911H42.8304H43.3304V105.509V74.1697V73.6697H42.8304H11.4911H10.9911V74.1697V105.509ZM53.8214 116.5H0.5V63.1786H53.8214V116.5Z" fill="#F9DB10" stroke="#1A1A23"/>
</svg>
