<svg width="671" height="88" viewBox="0 0 671 88" fill="none" xmlns="http://www.w3.org/2000/svg">
<path d="M37.5905 81.5834C57.9844 81.5834 74.5169 65.0508 74.5169 44.6569C74.5169 24.263 57.9844 7.73047 37.5905 7.73047C17.1966 7.73047 0.664062 24.263 0.664062 44.6569C0.664062 65.0508 17.1966 81.5834 37.5905 81.5834Z" fill="white"/>
<path d="M61.091 51.3709C61.091 38.3926 50.5704 27.8714 37.5927 27.8714C24.6149 27.8714 14.0938 38.3926 14.0938 51.3709H20.8072C20.8072 42.1004 28.3228 34.5861 37.5921 34.5861C46.862 34.5861 54.3769 42.1004 54.3769 51.3709" fill="black" fill-opacity="0.1"/>
<path d="M39.2679 62.1125C46.3129 62.1125 52.0241 56.4013 52.0241 49.3563C52.0241 42.3112 46.3129 36.6001 39.2679 36.6001C32.2229 36.6001 26.5117 42.3112 26.5117 49.3563C26.5117 56.4013 32.2229 62.1125 39.2679 62.1125Z" fill="black" fill-opacity="0.1"/>
<path d="M37.5916 58.4205C45.193 58.4205 51.3551 52.2584 51.3551 44.6571C51.3551 37.0557 45.193 30.8936 37.5916 30.8936C29.9903 30.8936 23.8281 37.0557 23.8281 44.6571C23.8281 52.2584 29.9903 58.4205 37.5916 58.4205Z" fill="url(#paint0_linear_775_7642)"/>
<path d="M71.1632 27.8717C61.9217 9.27746 39.3563 1.69591 20.7614 10.9374C14.9635 13.819 10.008 18.1491 6.375 23.5083L21.4818 49.692C18.6989 40.8501 23.6133 31.4258 32.4552 28.6436C34.0103 28.1542 35.6285 27.8943 37.2587 27.8723" fill="url(#paint1_linear_775_7642)"/>
<path d="M6.37188 23.5082C-5.19052 40.7562 -0.581301 64.1104 16.666 75.6728C22.0025 79.2499 28.1662 81.4005 34.5696 81.9196L50.3471 55.0639C44.4479 62.2138 33.8692 63.2278 26.7187 57.328C24.2901 55.3249 22.4741 52.6789 21.4781 49.6925" fill="url(#paint2_linear_775_7642)"/>
<path d="M34.5664 81.9203C55.2722 83.4852 73.3259 67.9686 74.8913 47.2634C75.3965 40.5826 74.107 33.8881 71.1563 27.873H37.2524C46.5217 27.9154 54.0027 35.4649 53.9592 44.7348C53.9421 48.4853 52.6693 52.122 50.3439 55.0647" fill="url(#paint3_linear_775_7642)"/>
<path d="M6.375 23.5088L21.4818 49.6925C20.3625 45.9268 20.5997 41.8878 22.1519 38.279L7.04574 22.5015" fill="url(#paint4_linear_775_7642)"/>
<path d="M34.5665 81.9201L50.344 55.0645C47.8545 58.0329 44.4149 60.0489 40.6086 60.7706L33.8945 81.9201" fill="url(#paint5_linear_775_7642)"/>
<path d="M71.1623 27.8716H37.2578C39.7789 27.8834 42.265 28.4629 44.5314 29.5672C46.7978 30.6715 48.7864 32.2721 50.3494 34.2503L71.8342 28.8789" fill="url(#paint6_linear_775_7642)"/>
<path d="M221.285 31.9889C219.653 28.0634 216.344 23.825 213.753 22.4853C215.601 26.065 216.884 29.9094 217.555 33.8817L217.562 33.9447C213.317 23.361 206.118 19.0936 200.239 9.80119C199.935 9.32751 199.64 8.84823 199.354 8.3636C199.207 8.11048 199.069 7.852 198.941 7.58869C198.697 7.11648 198.509 6.6174 198.38 6.10159C198.381 6.07777 198.372 6.05473 198.356 6.03685C198.341 6.01896 198.319 6.00749 198.295 6.00461C198.272 5.99846 198.248 5.99846 198.225 6.00461C198.22 6.00461 198.212 6.0134 198.206 6.01545C198.2 6.01721 198.188 6.026 198.179 6.02981L198.194 6.00461C188.763 11.5268 185.563 21.749 185.268 26.8622C181.502 27.1211 177.901 28.5088 174.936 30.8445C174.626 30.5825 174.303 30.3374 173.967 30.1104C173.111 27.1159 173.075 23.9468 173.861 20.9334C170.398 22.6112 167.321 24.9896 164.824 27.9181H164.806C163.318 26.0319 163.423 19.8125 163.508 18.5132C163.068 18.6902 162.648 18.9134 162.254 19.1788C160.941 20.1165 159.713 21.1684 158.585 22.3224C157.299 23.6258 156.125 25.0345 155.075 26.5338V26.5394V26.5326C152.661 29.9549 150.949 33.8214 150.037 37.9089L149.987 38.1567C149.849 38.9358 149.726 39.7175 149.618 40.5014C149.618 40.5295 149.612 40.5556 149.609 40.5837C149.281 42.2919 149.077 44.0218 149 45.7596V45.9535C149.025 74.8581 180.331 92.8959 205.351 78.4218C210.112 75.6671 214.21 71.8998 217.355 67.3864C220.5 62.873 222.615 57.7237 223.55 52.3027C223.613 51.8185 223.664 51.3389 223.72 50.8496C224.494 44.458 223.657 37.9744 221.285 31.9889ZM178.01 61.3789C178.186 61.4633 178.35 61.5544 178.531 61.6347L178.557 61.6514C178.373 61.5633 178.191 61.4725 178.01 61.3789ZM217.565 33.9535V33.9175L217.572 33.9573L217.565 33.9535Z" fill="url(#paint7_linear_775_7642)"/>
<path d="M221.285 31.9887C219.653 28.0632 216.344 23.8249 213.753 22.4851C215.601 26.0648 216.884 29.9092 217.555 33.8816V33.9173L217.562 33.9572C220.456 42.2386 220.037 51.3181 216.394 59.2981C212.09 68.5313 201.674 77.995 185.37 77.5348C167.753 77.0359 152.238 63.9636 149.338 46.8416C148.81 44.1416 149.338 42.7729 149.604 40.5786C149.241 42.2829 149.039 44.0174 149 45.7594V45.9534C149.025 74.8579 180.331 92.8957 205.351 78.4216C210.112 75.6669 214.21 71.8996 217.355 67.3862C220.5 62.8728 222.615 57.7235 223.55 52.3026C223.613 51.8183 223.664 51.3387 223.72 50.8494C224.494 44.4578 223.657 37.9743 221.285 31.9887Z" fill="url(#paint8_radial_775_7642)"/>
<path d="M221.285 31.9887C219.653 28.0632 216.344 23.8249 213.753 22.4851C215.601 26.0648 216.884 29.9092 217.555 33.8816V33.9173L217.562 33.9572C220.456 42.2386 220.037 51.3181 216.394 59.2981C212.09 68.5313 201.674 77.995 185.37 77.5348C167.753 77.0359 152.238 63.9636 149.338 46.8416C148.81 44.1416 149.338 42.7729 149.604 40.5786C149.241 42.2829 149.039 44.0174 149 45.7594V45.9534C149.025 74.8579 180.331 92.8957 205.351 78.4216C210.112 75.6669 214.21 71.8996 217.355 67.3862C220.5 62.8728 222.615 57.7235 223.55 52.3026C223.613 51.8183 223.664 51.3387 223.72 50.8494C224.494 44.4578 223.657 37.9743 221.285 31.9887Z" fill="url(#paint9_radial_775_7642)"/>
<path d="M203.04 36.4026C203.122 36.4597 203.197 36.5169 203.274 36.574C202.331 34.9016 201.157 33.3705 199.786 32.0256C188.117 20.3541 196.728 6.71873 198.18 6.02615L198.195 6.00476C188.764 11.5269 185.564 21.7492 185.27 26.8624C185.708 26.8322 186.141 26.7953 186.589 26.7953C189.935 26.8015 193.22 27.6937 196.11 29.3812C199 31.0686 201.391 33.4912 203.04 36.4026Z" fill="url(#paint10_radial_775_7642)"/>
<path d="M186.613 38.7336C186.551 39.6676 183.251 42.8885 182.097 42.8885C171.421 42.8885 169.688 49.3473 169.688 49.3473C170.16 54.7859 173.95 59.2654 178.531 61.6349C178.741 61.7436 178.953 61.8415 179.165 61.9373C179.528 62.0983 179.896 62.2489 180.267 62.3888C181.84 62.9452 183.486 63.2629 185.153 63.3312C203.866 64.209 207.492 40.9531 193.987 34.2046C197.173 33.79 200.399 34.5734 203.04 36.4027C201.39 33.4914 198.999 31.0688 196.109 29.3813C193.22 27.6938 189.935 26.8016 186.589 26.7954C186.143 26.7954 185.707 26.8323 185.269 26.8625C181.503 27.1213 177.902 28.5091 174.936 30.8448C175.509 31.3294 176.155 31.9766 177.516 33.3181C180.064 35.8282 186.598 38.4283 186.613 38.7336Z" fill="url(#paint11_radial_775_7642)"/>
<path d="M186.613 38.7336C186.551 39.6676 183.251 42.8885 182.097 42.8885C171.421 42.8885 169.688 49.3473 169.688 49.3473C170.16 54.7859 173.95 59.2654 178.531 61.6349C178.741 61.7436 178.953 61.8415 179.165 61.9373C179.528 62.0983 179.896 62.2489 180.267 62.3888C181.84 62.9452 183.486 63.2629 185.153 63.3312C203.866 64.209 207.492 40.9531 193.987 34.2046C197.173 33.79 200.399 34.5734 203.04 36.4027C201.39 33.4914 198.999 31.0688 196.109 29.3813C193.22 27.6938 189.935 26.8016 186.589 26.7954C186.143 26.7954 185.707 26.8323 185.269 26.8625C181.503 27.1213 177.902 28.5091 174.936 30.8448C175.509 31.3294 176.155 31.9766 177.516 33.3181C180.064 35.8282 186.598 38.4283 186.613 38.7336Z" fill="url(#paint12_radial_775_7642)"/>
<path d="M173.185 29.5956C173.446 29.762 173.705 29.9336 173.96 30.1101C173.104 27.1156 173.068 23.9464 173.854 20.9331C170.391 22.6109 167.313 24.9893 164.816 27.9178C165 27.9128 170.446 27.8149 173.185 29.5956Z" fill="url(#paint13_radial_775_7642)"/>
<path d="M149.342 46.8416C152.24 63.9636 167.758 77.0358 185.374 77.5347C201.679 77.9959 212.095 68.5312 216.398 59.298C220.042 51.318 220.46 42.2386 217.566 33.9571V33.9214C217.566 33.8933 217.56 33.8766 217.566 33.8853L217.573 33.9483C218.905 42.6448 214.482 51.0703 207.567 56.7674L207.545 56.816C194.072 67.7891 181.178 63.4365 178.568 61.6596C178.384 61.5719 178.202 61.4811 178.021 61.3875C170.166 57.6325 166.921 50.4753 167.616 44.3373C165.751 44.3648 163.919 43.851 162.34 42.858C160.761 41.865 159.504 40.4355 158.722 38.7428C160.784 37.4794 163.135 36.7653 165.552 36.6683C167.968 36.5713 170.369 37.0948 172.526 38.1888C176.972 40.2072 182.032 40.4061 186.623 38.7428C186.609 38.4375 180.074 35.8365 177.526 33.3275C176.165 31.9857 175.519 31.3394 174.947 30.8543C174.637 30.5921 174.314 30.3469 173.978 30.1198C173.755 29.9678 173.504 29.8031 173.203 29.6054C170.464 27.8247 165.018 27.9226 164.837 27.9275H164.82C163.332 26.0414 163.437 19.822 163.522 18.5229C163.082 18.6997 162.662 18.9227 162.268 19.1883C160.955 20.1258 159.727 21.1778 158.599 22.3318C157.309 23.6317 156.13 25.0372 155.074 26.5336V26.5392V26.5324C152.661 29.9547 150.948 33.8212 150.037 37.9087C150.019 37.9851 148.684 43.817 149.342 46.8416Z" fill="url(#paint14_radial_775_7642)"/>
<path d="M199.786 32.0255C201.157 33.3719 202.331 34.9048 203.274 36.5788C203.469 36.7237 203.656 36.8776 203.837 37.0399C212.349 44.8868 207.889 55.9792 207.557 56.7687C214.472 51.0714 218.891 42.6462 217.563 33.9494C213.316 23.361 206.117 19.0936 200.238 9.80119C199.934 9.32751 199.639 8.84823 199.353 8.3636C199.206 8.11048 199.068 7.852 198.94 7.58869C198.696 7.11648 198.508 6.6174 198.38 6.10159C198.38 6.07777 198.371 6.05473 198.355 6.03685C198.34 6.01896 198.318 6.00749 198.294 6.00461C198.271 5.99846 198.247 5.99846 198.224 6.00461C198.219 6.00461 198.211 6.0134 198.205 6.01545C198.199 6.01721 198.187 6.026 198.178 6.02981C196.726 6.71858 188.115 20.3539 199.786 32.0255Z" fill="url(#paint15_radial_775_7642)"/>
<path d="M203.832 37.0352C203.652 36.8729 203.464 36.719 203.269 36.5741C203.193 36.517 203.117 36.4598 203.036 36.4027C200.395 34.5734 197.169 33.79 193.983 34.2046C207.487 40.9569 203.864 64.209 185.149 63.3312C183.482 63.2629 181.836 62.9452 180.263 62.3887C179.892 62.2494 179.524 62.0988 179.161 61.9373C178.949 61.8403 178.737 61.7436 178.527 61.6349L178.553 61.6516C181.163 63.4332 194.054 67.7858 207.531 56.8077L207.552 56.7594C207.888 55.9745 212.349 44.8795 203.832 37.0352Z" fill="url(#paint16_radial_775_7642)"/>
<path d="M169.687 49.347C169.687 49.347 171.42 42.8883 182.097 42.8883C183.251 42.8883 186.553 39.6674 186.612 38.7334C182.021 40.3967 176.961 40.1978 172.515 38.1791C170.358 37.0852 167.957 36.5618 165.541 36.6589C163.124 36.7559 160.773 37.4701 158.711 38.7334C159.494 40.4261 160.75 41.8556 162.329 42.8486C163.908 43.8416 165.74 44.3554 167.605 44.3279C166.91 50.4671 170.155 57.6243 178.011 61.3781C178.186 61.4625 178.351 61.5536 178.531 61.6338C173.946 59.2652 170.16 54.7857 169.687 49.347Z" fill="url(#paint17_radial_775_7642)"/>
<path d="M221.285 31.9889C219.653 28.0634 216.344 23.825 213.753 22.4853C215.601 26.065 216.884 29.9094 217.555 33.8817L217.562 33.9447C213.317 23.361 206.118 19.0936 200.239 9.80119C199.935 9.32751 199.64 8.84823 199.354 8.3636C199.207 8.11048 199.069 7.852 198.941 7.58869C198.697 7.11648 198.509 6.6174 198.38 6.10159C198.381 6.07777 198.372 6.05473 198.356 6.03685C198.341 6.01896 198.319 6.00749 198.295 6.00461C198.272 5.99846 198.248 5.99846 198.225 6.00461C198.22 6.00461 198.212 6.0134 198.206 6.01545C198.2 6.01721 198.188 6.026 198.179 6.02981L198.194 6.00461C188.763 11.5268 185.563 21.749 185.268 26.8622C185.706 26.832 186.14 26.7951 186.588 26.7951C189.934 26.8013 193.219 27.6935 196.109 29.381C198.998 31.0685 201.39 33.4911 203.039 36.4024C200.398 34.5731 197.172 33.7897 193.986 34.2043C207.491 40.9566 203.868 64.2087 185.152 63.331C183.486 63.2626 181.839 62.9449 180.267 62.3885C179.895 62.2491 179.527 62.0986 179.164 61.937C178.952 61.84 178.74 61.7434 178.531 61.6347L178.557 61.6514C178.373 61.5633 178.191 61.4725 178.01 61.3789C178.186 61.4633 178.35 61.5544 178.531 61.6347C173.946 59.2651 170.16 54.7856 169.687 49.347C169.687 49.347 171.42 42.8882 182.097 42.8882C183.25 42.8882 186.553 39.6673 186.612 38.7333C186.598 38.428 180.063 35.8271 177.516 33.3178C176.154 31.9763 175.508 31.33 174.936 30.8445C174.626 30.5825 174.303 30.3374 173.967 30.1104C173.111 27.1159 173.075 23.9468 173.861 20.9334C170.398 22.6112 167.321 24.9896 164.824 27.9181H164.806C163.318 26.0319 163.423 19.8125 163.508 18.5132C163.068 18.6902 162.648 18.9134 162.254 19.1788C160.941 20.1165 159.713 21.1684 158.585 22.3224C157.299 23.6258 156.125 25.0345 155.075 26.5338V26.5394V26.5326C152.661 29.9549 150.949 33.8214 150.037 37.9089L149.987 38.1567C149.916 38.4872 149.6 40.165 149.554 40.5254C149.554 40.4973 149.554 40.5526 149.554 40.5254C149.264 42.2574 149.079 44.0053 149 45.7596V45.9535C149.025 74.8581 180.331 92.8959 205.351 78.4218C210.112 75.6671 214.21 71.8998 217.355 67.3864C220.5 62.873 222.615 57.7237 223.55 52.3027C223.613 51.8185 223.664 51.3389 223.72 50.8496C224.494 44.458 223.657 37.9744 221.285 31.9889Z" fill="url(#paint18_linear_775_7642)"/>
<path d="M373 28.4473L370.275 21.0938L372.15 16.875C372.385 16.3184 372.268 15.7031 371.857 15.2637L366.73 10.0781C364.475 7.82227 361.135 7.03125 358.117 8.08594L356.682 8.58398L348.83 0.0878906L335.559 0H335.471L322.111 0.117188L314.289 8.67188L312.883 8.17383C309.836 7.08984 306.467 7.88086 304.211 10.1953L298.996 15.4688C298.645 15.8203 298.557 16.3184 298.732 16.7578L300.695 21.1523L298 28.5059L299.758 35.1562L307.727 65.4199C308.635 68.9062 310.744 71.9531 313.703 74.0625C313.703 74.0625 323.371 80.8887 332.893 87.0703C333.742 87.627 334.621 88.0078 335.559 88.0078C336.496 88.0078 337.375 87.627 338.225 87.0703C348.947 80.0391 357.414 74.0332 357.414 74.0332C360.344 71.9238 362.453 68.877 363.361 65.3906L371.271 35.127L373 28.4473Z" fill="#F15A22"/>
<path opacity="0.15" d="M308.107 66.7092L298 29.1506L300.959 21.7971L298.908 16.3479L303.801 11.3674C305.412 9.93188 308.576 9.43384 310.041 10.2834L317.687 14.678L327.648 16.9924L335.412 13.7698L336.057 80.4788C335.939 90.0881 336.555 89.0627 329.494 84.5217L312.062 72.8323C310.187 71.0452 308.752 69.0237 308.107 66.7092Z" fill="url(#paint19_linear_775_7642)"/>
<path opacity="0.4" d="M357.236 73.9004L342.412 84.0371C338.281 86.293 336.289 88.5196 335.967 87.4356C335.703 86.586 335.908 84.0957 335.82 80.2285L335.645 14.9844C335.674 14.3399 336.113 13.2559 336.875 13.3731L344.434 15.6582L355.332 13.959L362.539 8.65627C363.301 8.07033 364.414 8.12892 365.117 8.80275L371.562 14.9551C372.148 15.5703 372.178 16.7715 371.826 17.5332L370.039 20.8438L372.998 28.4903L362.803 66.4004C361.221 71.1172 358.994 72.3477 357.236 73.9004Z" fill="url(#paint20_linear_775_7642)"/>
<path d="M337.26 54.1411C336.908 53.9946 336.527 53.8774 336.41 53.8774H335.473C335.355 53.8774 334.974 53.9946 334.623 54.1411L330.814 55.7231C330.463 55.8696 329.877 56.1333 329.525 56.3091L323.783 59.2974C323.431 59.4731 323.402 59.7954 323.724 60.0298L328.793 63.604C329.115 63.8384 329.613 64.2192 329.906 64.4829L332.162 66.4165C332.455 66.6802 332.924 67.0903 333.217 67.354L335.385 69.2876C335.678 69.5513 336.146 69.5513 336.439 69.2876L338.666 67.354C338.959 67.0903 339.428 66.6802 339.721 66.4165L341.976 64.4536C342.269 64.1899 342.767 63.8091 343.09 63.5747L348.158 59.9712C348.48 59.7368 348.451 59.4146 348.099 59.2388L342.357 56.3091C342.006 56.1333 341.42 55.8696 341.068 55.7231L337.26 54.1411Z" fill="white"/>
<path d="M364.742 29.7532C364.859 29.3724 364.859 29.2259 364.859 29.2259C364.859 28.845 364.83 28.2005 364.771 27.8197L364.478 26.97C364.303 26.6185 364.01 26.0618 363.775 25.7396L360.465 20.847C360.26 20.5247 359.879 20.0267 359.615 19.7044L355.338 14.3431C355.103 14.0501 354.869 13.7865 354.84 13.8157H354.781C354.781 13.8157 354.459 13.8743 354.078 13.9329L347.545 15.222C347.164 15.3099 346.549 15.4271 346.168 15.4857L346.051 15.515C345.67 15.5736 345.055 15.5443 344.674 15.4271L339.195 13.6693C338.814 13.5521 338.199 13.3763 337.848 13.2884C337.848 13.2884 336.734 13.0247 335.826 13.054C334.918 13.054 333.805 13.2884 333.805 13.2884C333.424 13.3763 332.809 13.5521 332.457 13.6693L326.978 15.4271C326.598 15.5443 325.982 15.5736 325.602 15.515L325.484 15.4857C325.103 15.4271 324.488 15.2806 324.107 15.222L317.516 13.9915C317.135 13.9036 316.812 13.8743 316.812 13.8743H316.754C316.725 13.8743 316.49 14.1087 316.256 14.4017L311.978 19.763C311.744 20.056 311.363 20.5833 311.129 20.9056L307.818 25.7982C307.613 26.1204 307.291 26.6771 307.115 27.0286L306.822 27.8782C306.764 28.2591 306.705 28.9036 306.734 29.2845C306.734 29.2845 306.734 29.4017 306.852 29.8118C307.057 30.515 307.555 31.1595 307.555 31.1595C307.789 31.4525 308.228 31.9505 308.492 32.2142L318.189 42.5267C318.453 42.8197 318.541 43.347 318.395 43.6986L316.373 48.474C316.227 48.8255 316.197 49.4115 316.344 49.7923L316.9 51.2865C317.369 52.5462 318.16 53.6595 319.215 54.5091L321.178 56.0911C321.471 56.3255 321.998 56.4134 322.35 56.2376L328.561 53.2786C328.912 53.1029 329.439 52.7513 329.732 52.4876L334.186 48.474C334.83 47.888 334.859 46.8919 334.273 46.2474L324.928 39.9486C324.605 39.7435 324.488 39.2747 324.664 38.9232L328.766 31.1888C328.941 30.8372 328.971 30.2806 328.824 29.929L328.326 28.7865C328.18 28.4349 327.74 28.0247 327.389 27.8782L315.348 23.3665C314.996 23.22 314.996 23.0736 315.377 23.0443L323.141 22.3118C323.521 22.2825 324.137 22.3411 324.518 22.429L331.432 24.3626C331.812 24.4798 332.047 24.8607 331.988 25.2415L329.586 38.3958C329.527 38.7767 329.527 39.304 329.615 39.597C329.703 39.89 330.084 40.1536 330.465 40.2415L335.27 41.2669C335.65 41.3548 336.266 41.3548 336.646 41.2669L341.129 40.2415C341.51 40.1536 341.891 39.8607 341.978 39.597C342.066 39.3333 342.096 38.7767 342.008 38.3958L339.635 25.2415C339.576 24.8607 339.811 24.4505 340.191 24.3626L347.105 22.429C347.486 22.3118 348.102 22.2825 348.482 22.3118L356.246 23.0443C356.627 23.0736 356.656 23.22 356.275 23.3665L344.234 27.9368C343.883 28.0833 343.443 28.4642 343.297 28.845L342.799 29.9876C342.652 30.3392 342.652 30.9251 342.857 31.2474L346.988 38.9818C347.164 39.3333 347.047 39.7728 346.725 40.0072L337.379 46.3353C336.764 46.9505 336.822 47.9759 337.467 48.5618L341.92 52.5755C342.213 52.8392 342.74 53.1908 343.092 53.3372L349.332 56.2962C349.684 56.472 350.211 56.3841 350.504 56.1497L352.467 54.5384C353.521 53.6888 354.312 52.5755 354.752 51.3158L355.309 49.8216C355.455 49.47 355.426 48.8548 355.279 48.5033L353.258 43.7279C353.111 43.3763 353.199 42.849 353.463 42.556L363.16 32.2435C363.424 31.9505 363.834 31.4818 364.098 31.1888C364.039 31.1009 364.566 30.4564 364.742 29.7532Z" fill="white"/>
<path d="M514.672 62.8089C513.676 63.3362 512.651 63.8049 511.596 64.1858C508.227 65.4455 504.682 66.09 501.079 66.09C487.222 66.09 475.152 56.5688 475.152 44.3231C475.181 40.9834 477.027 37.9073 479.957 36.3253C467.418 36.8526 464.195 49.9186 464.195 57.5649C464.195 79.2146 484.146 81.4118 488.452 81.4118C490.767 81.4118 494.253 80.738 496.362 80.0642L496.743 79.947C504.829 77.1639 511.684 71.7148 516.254 64.4787C516.606 63.9221 516.43 63.219 515.903 62.8675C515.522 62.6331 515.053 62.6038 514.672 62.8089Z" fill="url(#paint21_linear_775_7642)"/>
<path opacity="0.35" d="M514.672 62.8089C513.676 63.3362 512.651 63.8049 511.596 64.1858C508.227 65.4455 504.682 66.09 501.079 66.09C487.222 66.09 475.152 56.5688 475.152 44.3231C475.181 40.9834 477.027 37.9073 479.957 36.3253C467.418 36.8526 464.195 49.9186 464.195 57.5649C464.195 79.2146 484.146 81.4118 488.452 81.4118C490.767 81.4118 494.253 80.738 496.362 80.0642L496.743 79.947C504.829 77.1639 511.684 71.7148 516.254 64.4787C516.606 63.9221 516.43 63.219 515.903 62.8675C515.522 62.6331 515.053 62.6038 514.672 62.8089Z" fill="url(#paint22_radial_775_7642)"/>
<path d="M477.966 77.7205C475.359 76.1092 473.103 73.9706 471.316 71.4804C463.611 60.9339 465.925 46.1394 476.472 38.4346C477.585 37.6436 478.728 36.9112 479.958 36.3253C480.866 35.8858 482.419 35.1241 484.499 35.1534C487.458 35.1827 490.241 36.5889 492.028 38.9619C493.2 40.5439 493.874 42.4481 493.903 44.4403C493.903 44.3817 501.08 21.1207 470.466 21.1207C457.605 21.1207 447.029 33.3371 447.029 44.0301C446.971 49.6842 448.201 55.3091 450.574 60.4359C458.66 77.6619 478.347 86.0991 496.393 80.0934C490.212 82.027 483.474 81.1774 477.966 77.7205Z" fill="url(#paint23_linear_775_7642)"/>
<path opacity="0.41" d="M477.966 77.7205C475.359 76.1092 473.103 73.9706 471.316 71.4804C463.611 60.9339 465.925 46.1394 476.472 38.4346C477.585 37.6436 478.728 36.9112 479.958 36.3253C480.866 35.8858 482.419 35.1241 484.499 35.1534C487.458 35.1827 490.241 36.5889 492.028 38.9619C493.2 40.5439 493.874 42.4481 493.903 44.4403C493.903 44.3817 501.08 21.1207 470.466 21.1207C457.605 21.1207 447.029 33.3371 447.029 44.0301C446.971 49.6842 448.201 55.3091 450.574 60.4359C458.66 77.6619 478.347 86.0991 496.393 80.0934C490.212 82.027 483.474 81.1774 477.966 77.7205Z" fill="url(#paint24_radial_775_7642)"/>
<path d="M491.618 50.6217C491.383 50.9147 490.651 51.3541 490.651 52.2916C490.651 53.0533 491.149 53.7857 492.028 54.4009C496.247 57.3305 504.186 56.9496 504.215 56.9496C507.35 56.9496 510.396 56.1 513.092 54.5181C518.599 51.2955 521.998 45.407 521.998 39.0205C522.086 32.4582 519.654 28.0931 518.687 26.1596C512.476 14.0017 499.059 7 484.499 7C463.992 7 447.293 23.4643 447 43.9715C447.146 33.2785 457.781 24.6362 470.437 24.6362C471.462 24.6362 477.321 24.7241 482.741 27.5951C487.516 30.1145 490.036 33.132 491.764 36.1495C493.581 39.2842 493.903 43.2098 493.903 44.7918C493.903 46.3445 493.112 48.6882 491.618 50.6217Z" fill="url(#paint25_radial_775_7642)"/>
<path d="M491.618 50.6217C491.383 50.9147 490.651 51.3541 490.651 52.2916C490.651 53.0533 491.149 53.7857 492.028 54.4009C496.247 57.3305 504.186 56.9496 504.215 56.9496C507.35 56.9496 510.396 56.1 513.092 54.5181C518.599 51.2955 521.998 45.407 521.998 39.0205C522.086 32.4582 519.654 28.0931 518.687 26.1596C512.476 14.0017 499.059 7 484.499 7C463.992 7 447.293 23.4643 447 43.9715C447.146 33.2785 457.781 24.6362 470.437 24.6362C471.462 24.6362 477.321 24.7241 482.741 27.5951C487.516 30.1145 490.036 33.132 491.764 36.1495C493.581 39.2842 493.903 43.2098 493.903 44.7918C493.903 46.3445 493.112 48.6882 491.618 50.6217Z" fill="url(#paint26_radial_775_7642)"/>
<path d="M621.166 66.6234C617.006 61.7308 614.34 54.4944 614.164 46.3791V44.6213C614.34 36.506 617.035 29.2697 621.166 24.3771C626.557 17.4044 634.467 14.2696 643.403 14.2696C648.91 14.2696 654.096 14.6504 658.491 17.5801C651.899 11.6328 643.198 8.0293 633.647 8H633.5C612.787 8 596 24.7872 596 45.5002C596 65.598 611.82 82.0337 631.713 82.9712C632.299 83.0005 632.914 83.0005 633.5 83.0005C643.11 83.0005 651.869 79.3969 658.491 73.4496C654.096 76.3793 649.203 76.4965 643.696 76.4965C634.789 76.5258 626.528 73.6254 621.166 66.6234Z" fill="url(#paint27_linear_775_7642)"/>
<path d="M621.164 24.377C624.592 20.3047 629.045 17.8731 633.908 17.8731C644.836 17.8731 653.684 30.2364 653.684 45.5295C653.684 60.8226 644.836 73.1859 633.908 73.1859C629.045 73.1859 624.621 70.725 621.164 66.682C626.555 73.6547 634.553 78.1078 643.459 78.1078C648.938 78.1078 654.094 76.4379 658.489 73.5082C666.164 66.5941 670.998 56.6038 670.998 45.5002C670.998 34.3966 666.164 24.4063 658.489 17.5508C654.094 14.6211 648.967 12.9512 643.459 12.9512C634.524 12.9512 626.525 17.375 621.164 24.377Z" fill="url(#paint28_linear_775_7642)"/>
<defs>
<linearGradient id="paint0_linear_775_7642" x1="37.5995" y1="30.8718" x2="37.5995" y2="58.4218" gradientUnits="userSpaceOnUse">
<stop stop-color="#81B4E0"/>
<stop offset="1" stop-color="#0C5A94"/>
</linearGradient>
<linearGradient id="paint1_linear_775_7642" x1="38.7691" y1="7.05881" x2="38.7691" y2="37.6072" gradientUnits="userSpaceOnUse">
<stop stop-color="#F06B59"/>
<stop offset="1" stop-color="#DF2227"/>
</linearGradient>
<linearGradient id="paint2_linear_775_7642" x1="9.14867" y1="71.3814" x2="24.5902" y2="45.8691" gradientUnits="userSpaceOnUse">
<stop stop-color="#388B41"/>
<stop offset="1" stop-color="#4CB749"/>
</linearGradient>
<linearGradient id="paint3_linear_775_7642" x1="60.8736" y1="74.0954" x2="44.4247" y2="34.4836" gradientUnits="userSpaceOnUse">
<stop stop-color="#E4B022"/>
<stop offset="0.3" stop-color="#FCD209"/>
</linearGradient>
<linearGradient id="paint4_linear_775_7642" x1="14.2635" y1="48.6858" x2="14.2635" y2="21.8307" gradientUnits="userSpaceOnUse">
<stop stop-opacity="0.15"/>
<stop offset="0.3" stop-opacity="0.06"/>
<stop offset="1" stop-opacity="0.03"/>
</linearGradient>
<linearGradient id="paint5_linear_775_7642" x1="51.3253" y1="57.3576" x2="32.8624" y2="76.1565" gradientUnits="userSpaceOnUse">
<stop stop-opacity="0.15"/>
<stop offset="0.3" stop-opacity="0.06"/>
<stop offset="1" stop-opacity="0.03"/>
</linearGradient>
<linearGradient id="paint6_linear_775_7642" x1="51.0631" y1="62.7682" x2="53.7491" y2="36.2474" gradientUnits="userSpaceOnUse">
<stop stop-opacity="0.15"/>
<stop offset="0.3" stop-opacity="0.06"/>
<stop offset="1" stop-opacity="0.03"/>
</linearGradient>
<linearGradient id="paint7_linear_775_7642" x1="216.315" y1="18.0017" x2="153.986" y2="78.1374" gradientUnits="userSpaceOnUse">
<stop offset="0.048" stop-color="#FFF44F"/>
<stop offset="0.111" stop-color="#FFE847"/>
<stop offset="0.225" stop-color="#FFC830"/>
<stop offset="0.368" stop-color="#FF980E"/>
<stop offset="0.401" stop-color="#FF8B16"/>
<stop offset="0.462" stop-color="#FF672A"/>
<stop offset="0.534" stop-color="#FF3647"/>
<stop offset="0.705" stop-color="#E31587"/>
</linearGradient>
<radialGradient id="paint8_radial_775_7642" cx="0" cy="0" r="1" gradientUnits="userSpaceOnUse" gradientTransform="translate(213.436 14.5985) scale(78.2728 78.2728)">
<stop offset="0.129" stop-color="#FFBD4F"/>
<stop offset="0.186" stop-color="#FFAC31"/>
<stop offset="0.247" stop-color="#FF9D17"/>
<stop offset="0.283" stop-color="#FF980E"/>
<stop offset="0.403" stop-color="#FF563B"/>
<stop offset="0.467" stop-color="#FF3750"/>
<stop offset="0.71" stop-color="#F5156C"/>
<stop offset="0.782" stop-color="#EB0878"/>
<stop offset="0.86" stop-color="#E50080"/>
</radialGradient>
<radialGradient id="paint9_radial_775_7642" cx="0" cy="0" r="1" gradientUnits="userSpaceOnUse" gradientTransform="translate(184.835 46.5986) scale(78.2728 78.2728)">
<stop offset="0.3" stop-color="#960E18"/>
<stop offset="0.351" stop-color="#B11927" stop-opacity="0.74"/>
<stop offset="0.435" stop-color="#DB293D" stop-opacity="0.343"/>
<stop offset="0.497" stop-color="#F5334B" stop-opacity="0.094"/>
<stop offset="0.53" stop-color="#FF3750" stop-opacity="0"/>
</radialGradient>
<radialGradient id="paint10_radial_775_7642" cx="0" cy="0" r="1" gradientUnits="userSpaceOnUse" gradientTransform="translate(194.273 -3.16435) scale(56.7053 56.7054)">
<stop offset="0.132" stop-color="#FFF44F"/>
<stop offset="0.252" stop-color="#FFDC3E"/>
<stop offset="0.506" stop-color="#FF9D12"/>
<stop offset="0.526" stop-color="#FF980E"/>
</radialGradient>
<radialGradient id="paint11_radial_775_7642" cx="0" cy="0" r="1" gradientUnits="userSpaceOnUse" gradientTransform="translate(176.178 67.0447) scale(37.2691 37.2691)">
<stop offset="0.353" stop-color="#3A8EE6"/>
<stop offset="0.472" stop-color="#5C79F0"/>
<stop offset="0.669" stop-color="#9059FF"/>
<stop offset="1" stop-color="#C139E6"/>
</radialGradient>
<radialGradient id="paint12_radial_775_7642" cx="0" cy="0" r="1" gradientUnits="userSpaceOnUse" gradientTransform="translate(189.124 40.1852) rotate(-13.5915) scale(19.7599 23.1338)">
<stop offset="0.206" stop-color="#9059FF" stop-opacity="0"/>
<stop offset="0.278" stop-color="#8C4FF3" stop-opacity="0.064"/>
<stop offset="0.747" stop-color="#7716A8" stop-opacity="0.45"/>
<stop offset="0.975" stop-color="#6E008B" stop-opacity="0.6"/>
</radialGradient>
<radialGradient id="paint13_radial_775_7642" cx="0" cy="0" r="1" gradientUnits="userSpaceOnUse" gradientTransform="translate(183.846 11.3956) scale(26.8114 26.8114)">
<stop stop-color="#FFE226"/>
<stop offset="0.121" stop-color="#FFDB27"/>
<stop offset="0.295" stop-color="#FFC82A"/>
<stop offset="0.502" stop-color="#FFA930"/>
<stop offset="0.732" stop-color="#FF7E37"/>
<stop offset="0.792" stop-color="#FF7139"/>
</radialGradient>
<radialGradient id="paint14_radial_775_7642" cx="0" cy="0" r="1" gradientUnits="userSpaceOnUse" gradientTransform="translate(204.92 -5.60986) scale(114.392 114.392)">
<stop offset="0.113" stop-color="#FFF44F"/>
<stop offset="0.456" stop-color="#FF980E"/>
<stop offset="0.622" stop-color="#FF5634"/>
<stop offset="0.716" stop-color="#FF3647"/>
<stop offset="0.904" stop-color="#E31587"/>
</radialGradient>
<radialGradient id="paint15_radial_775_7642" cx="0" cy="0" r="1" gradientUnits="userSpaceOnUse" gradientTransform="translate(195.297 0.748764) rotate(83.9761) scale(83.8408 55.024)">
<stop stop-color="#FFF44F"/>
<stop offset="0.06" stop-color="#FFE847"/>
<stop offset="0.168" stop-color="#FFC830"/>
<stop offset="0.304" stop-color="#FF980E"/>
<stop offset="0.356" stop-color="#FF8B16"/>
<stop offset="0.455" stop-color="#FF672A"/>
<stop offset="0.57" stop-color="#FF3647"/>
<stop offset="0.737" stop-color="#E31587"/>
</radialGradient>
<radialGradient id="paint16_radial_775_7642" cx="0" cy="0" r="1" gradientUnits="userSpaceOnUse" gradientTransform="translate(183.215 21.327) scale(71.4169)">
<stop offset="0.137" stop-color="#FFF44F"/>
<stop offset="0.48" stop-color="#FF980E"/>
<stop offset="0.592" stop-color="#FF5634"/>
<stop offset="0.655" stop-color="#FF3647"/>
<stop offset="0.904" stop-color="#E31587"/>
</radialGradient>
<radialGradient id="paint17_radial_775_7642" cx="0" cy="0" r="1" gradientUnits="userSpaceOnUse" gradientTransform="translate(202.067 25.507) scale(78.1653 78.1653)">
<stop offset="0.094" stop-color="#FFF44F"/>
<stop offset="0.231" stop-color="#FFE141"/>
<stop offset="0.509" stop-color="#FFAF1E"/>
<stop offset="0.626" stop-color="#FF980E"/>
</radialGradient>
<linearGradient id="paint18_linear_775_7642" x1="215.566" y1="17.68" x2="162.531" y2="70.7148" gradientUnits="userSpaceOnUse">
<stop offset="0.167" stop-color="#FFF44F" stop-opacity="0.8"/>
<stop offset="0.266" stop-color="#FFF44F" stop-opacity="0.634"/>
<stop offset="0.489" stop-color="#FFF44F" stop-opacity="0.217"/>
<stop offset="0.6" stop-color="#FFF44F" stop-opacity="0"/>
</linearGradient>
<linearGradient id="paint19_linear_775_7642" x1="298" y1="3911.28" x2="4107.36" y2="3911.28" gradientUnits="userSpaceOnUse">
<stop stop-color="white"/>
<stop offset="0.1413" stop-color="white" stop-opacity="0.958"/>
<stop offset="1" stop-color="white" stop-opacity="0.7"/>
</linearGradient>
<linearGradient id="paint20_linear_775_7642" x1="334.188" y1="3980.04" x2="4071" y2="3980.04" gradientUnits="userSpaceOnUse">
<stop stop-color="#F1F1F2"/>
<stop offset="0.09191" stop-color="#E4E5E6"/>
<stop offset="0.2357" stop-color="#D9DADB"/>
<stop offset="0.438" stop-color="#D2D4D5"/>
<stop offset="1" stop-color="#D0D2D3"/>
</linearGradient>
<linearGradient id="paint21_linear_775_7642" x1="464.196" y1="58.8598" x2="516.426" y2="58.8598" gradientUnits="userSpaceOnUse">
<stop stop-color="#0C59A4"/>
<stop offset="1" stop-color="#114A8B"/>
</linearGradient>
<radialGradient id="paint22_radial_775_7642" cx="0" cy="0" r="1" gradientUnits="userSpaceOnUse" gradientTransform="translate(493.049 59.2747) scale(27.9397 26.5398)">
<stop offset="0.72" stop-opacity="0"/>
<stop offset="0.95" stop-opacity="0.53"/>
<stop offset="1"/>
</radialGradient>
<linearGradient id="paint23_linear_775_7642" x1="491.756" y1="36.2216" x2="459.128" y2="71.7611" gradientUnits="userSpaceOnUse">
<stop stop-color="#1B9DE2"/>
<stop offset="0.16" stop-color="#1595DF"/>
<stop offset="0.67" stop-color="#0680D7"/>
<stop offset="1" stop-color="#0078D4"/>
</linearGradient>
<radialGradient id="paint24_radial_775_7642" cx="0" cy="0" r="1" gradientUnits="userSpaceOnUse" gradientTransform="translate(467.686 65.3018) rotate(-81.3826) scale(42.0098 33.9464)">
<stop offset="0.76" stop-opacity="0"/>
<stop offset="0.95" stop-opacity="0.5"/>
<stop offset="1"/>
</radialGradient>
<radialGradient id="paint25_radial_775_7642" cx="0" cy="0" r="1" gradientUnits="userSpaceOnUse" gradientTransform="translate(454.573 20.8842) rotate(92.2911) scale(59.3394 126.4)">
<stop stop-color="#35C1F1"/>
<stop offset="0.11" stop-color="#34C1ED"/>
<stop offset="0.23" stop-color="#2FC2DF"/>
<stop offset="0.31" stop-color="#2BC3D2"/>
<stop offset="0.67" stop-color="#36C752"/>
</radialGradient>
<radialGradient id="paint26_radial_775_7642" cx="0" cy="0" r="1" gradientUnits="userSpaceOnUse" gradientTransform="translate(517.328 29.6768) rotate(73.7366) scale(28.5112 23.1898)">
<stop stop-color="#66EB6E"/>
<stop offset="1" stop-color="#66EB6E" stop-opacity="0"/>
</radialGradient>
<linearGradient id="paint27_linear_775_7642" x1="3720.72" y1="130.251" x2="3720.72" y2="7398.92" gradientUnits="userSpaceOnUse">
<stop offset="0.3" stop-color="#FF1B2D"/>
<stop offset="0.4381" stop-color="#FA1A2C"/>
<stop offset="0.5939" stop-color="#ED1528"/>
<stop offset="0.7581" stop-color="#D60E21"/>
<stop offset="0.9272" stop-color="#B70519"/>
<stop offset="1" stop-color="#A70014"/>
</linearGradient>
<linearGradient id="paint28_linear_775_7642" x1="3112.38" y1="68.5298" x2="3112.38" y2="6497.28" gradientUnits="userSpaceOnUse">
<stop stop-color="#9C0000"/>
<stop offset="0.7" stop-color="#FF4B4B"/>
</linearGradient>
</defs>
</svg>
