<svg width="100" height="100" viewBox="0 0 100 100" fill="none" xmlns="http://www.w3.org/2000/svg">
<path d="M49.9998 77.7023C65.2997 77.7023 77.7023 65.2992 77.7023 49.9996C77.7023 34.6999 65.2997 22.2969 49.9998 22.2969C34.6998 22.2969 22.2969 34.6999 22.2969 49.9996C22.2969 65.2992 34.6998 77.7023 49.9998 77.7023Z" fill="white"/>
<path d="M14.013 36.3203C11.9385 32.725 9.50008 28.9516 6.69735 25C2.31001 32.6013 0.00014903 41.2243 7.2112e-09 50.002C-0.000149015 58.7797 2.30942 67.4028 6.6965 75.0043C11.0836 82.6057 17.3935 88.9176 24.992 93.3053C32.5904 97.6931 41.2095 100.002 49.9827 100C54.5823 93.5451 57.706 88.8907 59.3522 86.0377C62.5145 80.5574 66.6042 72.7114 71.6216 62.4998V62.4939C69.4296 66.2964 66.2756 69.4543 62.4768 71.6502C58.6779 73.8461 54.3682 75.0025 49.9809 75.0032C45.5936 75.0039 41.2835 73.8488 37.484 71.654C33.6844 69.4593 30.5295 66.3023 28.3363 62.5006C21.5216 49.7853 16.7474 41.0582 14.013 36.3203Z" fill="#229342"/>
<path d="M50.009 99.9999C56.5744 100.001 63.0757 98.7091 69.1416 96.1983C75.2074 93.6875 80.7189 90.0068 85.3612 85.3666C90.0036 80.7263 93.6858 75.2174 96.1975 69.1545C98.7093 63.0916 100.001 56.5935 100 50.0314C99.9984 41.2598 97.6864 32.6433 93.2965 25.0481C83.8257 24.1151 76.8363 23.6486 72.3279 23.6486C67.216 23.6486 59.775 24.1151 50.0055 25.0481L50 25.052C54.3887 25.0499 58.7005 26.2029 62.5019 28.3949C66.3033 30.5869 69.4603 33.7407 71.6553 37.5391C73.8502 41.3377 75.0057 45.6469 75.0056 50.0334C75.0055 54.4199 73.8499 58.729 71.6549 62.5275L50.009 99.9999Z" fill="#FBC116"/>
<path d="M49.9971 69.5945C60.8189 69.5945 69.5915 60.8219 69.5915 49.9999C69.5915 39.1774 60.8189 30.4053 49.9967 30.4053C39.1753 30.4053 30.4023 39.1782 30.4023 49.9999C30.4023 60.8216 39.1753 69.5945 49.9971 69.5945Z" fill="#1A73E8"/>
<path d="M50.0032 25.1341H93.2443C88.8626 17.4921 82.5592 11.146 74.968 6.73396C67.3767 2.3219 58.7652 -0.000596908 49.9994 1.15074e-07C41.2335 0.000597138 32.6223 2.32427 25.0317 6.73736C17.441 11.1505 11.1385 17.4974 6.75781 25.14L28.3786 62.8347L28.3844 62.8378C26.1909 59.0175 25.0354 54.6832 25.0341 50.2708C25.0328 45.8583 26.1858 41.5233 28.3771 37.7017C30.5683 33.8801 33.7207 30.7067 37.517 28.5004C41.3134 26.2942 45.6199 25.1331 50.0036 25.1337L50.0032 25.1341Z" fill="#E33B2E"/>
</svg>
