<svg width="313" height="74" viewBox="0 0 313 74" fill="none" xmlns="http://www.w3.org/2000/svg">
<path d="M178.14 5.71521H134.856C131.455 5.71521 128.673 8.49776 128.673 11.8987V55.1828C128.673 58.5837 131.455 61.3663 134.856 61.3663H178.14C181.541 61.3663 184.324 58.5837 184.324 55.1828V11.8987C184.324 8.49776 181.541 5.71521 178.14 5.71521ZM152.51 46.8042C152.224 47.0909 151.884 47.3182 151.51 47.4734C151.136 47.6285 150.735 47.7084 150.33 47.7084C149.925 47.7084 149.525 47.6285 149.151 47.4734C148.776 47.3182 148.437 47.0909 148.151 46.8042L137.051 35.7049C136.765 35.4187 136.538 35.0789 136.383 34.7049C136.228 34.3309 136.149 33.9301 136.149 33.5253C136.149 33.1205 136.228 32.7196 136.383 32.3457C136.538 31.9717 136.765 31.6319 137.051 31.3456C137.338 31.0594 137.677 30.8323 138.051 30.6774C138.425 30.5225 138.826 30.4428 139.231 30.4428C139.636 30.4428 140.037 30.5225 140.411 30.6774C140.785 30.8323 141.125 31.0594 141.411 31.3456L150.315 40.2498L171.586 18.9787C172.164 18.4006 172.948 18.0759 173.766 18.0759C174.583 18.0759 175.367 18.4006 175.945 18.9787C176.523 19.5568 176.848 20.3408 176.848 21.1584C176.848 21.9759 176.523 22.76 175.945 23.338L152.51 46.8042Z" fill="#F9DB10"/>
<path d="M28.0384 0.151001L0.212891 12.5179V31.0683C0.212891 48.2273 12.0851 64.2734 28.0384 68.169C43.9917 64.2734 55.8639 48.2273 55.8639 31.0683V12.5179L28.0384 0.151001ZM28.0384 18.7014C32.3668 18.7014 36.6953 22.1023 36.6953 26.4307V31.0683C38.5503 31.0683 40.4053 32.9233 40.4053 35.0875V45.9085C40.4053 47.7636 38.5503 49.6186 36.3861 49.6186H19.3816C17.5266 49.6186 15.6715 47.7636 15.6715 45.5994V34.7783C15.6715 32.9233 17.5266 31.0683 19.3816 31.0683V26.4307C19.3816 22.1023 23.71 18.7014 28.0384 18.7014ZM28.0384 22.4114C25.565 22.4114 23.4008 23.9573 23.4008 26.4307V31.0683H32.676V26.4307C32.676 23.9573 30.5118 22.4114 28.0384 22.4114Z" fill="#F9DB10"/>
<path d="M312.787 2.62299H279.924L258.991 37.8687H279.924L262.002 73.1143L309.791 29.0572H285.889L312.787 2.62299Z" fill="#F9DB10"/>
<rect x="77.1982" y="31.6873" width="29.6806" height="5.56511" fill="#F9DB10"/>
<rect x="207" y="32.0006" width="29.6806" height="5.56511" fill="#F9DB10"/>
</svg>
