<svg width="91" height="100" viewBox="0 0 91 100" fill="none" xmlns="http://www.w3.org/2000/svg">
<path d="M42.3235 47.7627L0.375 91.7121C0.846078 93.3815 1.69262 94.9211 2.84991 96.2133C4.0072 97.5054 5.44461 98.5158 7.05225 99.1673C8.65988 99.8187 10.3952 100.094 12.1255 99.972C13.8558 99.8501 15.5354 99.3341 17.0357 98.4635L64.2357 71.5816L42.3235 47.7627Z" fill="#EA4335"/>
<path d="M84.7413 40.2921L64.3304 28.6011L41.3555 48.7623L64.4239 71.5185L84.6793 59.9528C86.4737 59.0132 87.9767 57.6004 89.0254 55.8675C90.0741 54.1346 90.6285 52.1478 90.6285 50.1223C90.6285 48.0968 90.0741 46.1099 89.0254 44.377C87.9767 42.6441 86.4737 41.2313 84.6793 40.2918L84.7413 40.2921Z" fill="#FBBC04"/>
<path d="M0.375375 8.31482C0.12182 9.2522 -0.00439964 10.2194 0.00011705 11.1905V88.8359C0.00274592 89.8066 0.128844 90.773 0.375375 91.7119L43.7619 48.888L0.375375 8.31482Z" fill="#4285F4"/>
<path d="M42.6361 50.0134L64.3295 28.6014L17.1922 1.59416C15.4187 0.555499 13.4016 0.00544571 11.3463 2.1712e-05C6.24601 -0.00989075 1.76204 3.37522 0.375 8.28366L42.6361 50.0134Z" fill="#34A853"/>
</svg>
