<svg width="56" height="68" viewBox="0 0 56 68" fill="none" xmlns="http://www.w3.org/2000/svg">
<path d="M27.8255 -0.00897217L0 12.3579V30.9083C0 48.0674 11.8722 64.1134 27.8255 68.009C43.7788 64.1134 55.6511 48.0674 55.6511 30.9083V12.3579L27.8255 -0.00897217ZM27.8255 18.5414C32.1539 18.5414 36.4824 21.9423 36.4824 26.2707V30.9083C38.3374 30.9083 40.1924 32.7633 40.1924 34.9275V45.7486C40.1924 47.6036 38.3374 49.4586 36.1732 49.4586H19.1687C17.3137 49.4586 15.4586 47.6036 15.4586 45.4394V34.6184C15.4586 32.7633 17.3137 30.9083 19.1687 30.9083V26.2707C19.1687 21.9423 23.4971 18.5414 27.8255 18.5414ZM27.8255 22.2515C25.3521 22.2515 23.1879 23.7973 23.1879 26.2707V30.9083H32.4631V26.2707C32.4631 23.7973 30.2989 22.2515 27.8255 22.2515Z" fill="#F9DB10"/>
</svg>
