<svg width="56" height="56" viewBox="0 0 56 56" fill="none" xmlns="http://www.w3.org/2000/svg">
<path d="M49.4657 0.174469H6.1815C2.7806 0.174469 -0.00195312 2.95702 -0.00195312 6.35792V49.6421C-0.00195312 53.043 2.7806 55.8255 6.1815 55.8255H49.4657C52.8666 55.8255 55.6491 53.043 55.6491 49.6421V6.35792C55.6491 2.95702 52.8666 0.174469 49.4657 0.174469ZM23.8352 41.2635C23.5492 41.5501 23.2095 41.7775 22.8355 41.9327C22.4614 42.0878 22.0605 42.1677 21.6556 42.1677C21.2507 42.1677 20.8497 42.0878 20.4757 41.9327C20.1017 41.7775 19.7619 41.5501 19.4759 41.2635L8.37662 30.1642C8.09038 29.878 7.86333 29.5382 7.70842 29.1642C7.55351 28.7902 7.47377 28.3893 7.47377 27.9845C7.47377 27.5797 7.55351 27.1789 7.70842 26.8049C7.86333 26.4309 8.09038 26.0911 8.37662 25.8049C8.66286 25.5186 9.00267 25.2916 9.37666 25.1367C9.75065 24.9818 10.1515 24.902 10.5563 24.902C10.9611 24.902 11.3619 24.9818 11.7359 25.1367C12.1099 25.2916 12.4497 25.5186 12.736 25.8049L21.6401 34.709L42.9112 13.438C43.4893 12.8599 44.2733 12.5351 45.0909 12.5351C45.9084 12.5351 46.6924 12.8599 47.2705 13.438C47.8486 14.0161 48.1734 14.8001 48.1734 15.6176C48.1734 16.4352 47.8486 17.2192 47.2705 17.7973L23.8352 41.2635Z" fill="#F9DB10"/>
</svg>
