<svg width="23" height="14" viewBox="0 0 23 14" fill="none" xmlns="http://www.w3.org/2000/svg">
<path d="M12.2033 12.7955L22.0275 0.720538C22.0534 0.688985 22.0695 0.651066 22.0739 0.611136C22.0784 0.571205 22.071 0.530882 22.0526 0.494798C22.0343 0.458714 22.0057 0.428333 21.9702 0.407142C21.9346 0.385952 21.8936 0.374812 21.8518 0.375002L19.695 0.375002C19.5582 0.375002 19.4271 0.43661 19.3434 0.538395L11.5002 10.1813L3.65701 0.538395C3.5733 0.43393 3.44216 0.375002 3.30544 0.375002L1.14863 0.375001C0.961693 0.375001 0.858456 0.581251 0.972853 0.720537L10.7971 12.7955C10.8805 12.8982 10.9871 12.9812 11.109 13.0383C11.2308 13.0954 11.3646 13.1251 11.5002 13.1251C11.6358 13.1251 11.7696 13.0954 11.8914 13.0383C12.0133 12.9812 12.1199 12.8982 12.2033 12.7955Z" fill="#D4D4D4"/>
</svg>
