<svg width="470" height="389" viewBox="0 0 470 389" fill="none" xmlns="http://www.w3.org/2000/svg">
<g filter="url(#filter0_d_775_7567)">
<g clip-path="url(#clip0_775_7567)">
<rect x="25" y="21" width="420" height="339" rx="8" fill="#1A1A23"/>
<g clip-path="url(#clip1_775_7567)">
<path d="M62.7265 221L63.3386 222.884L65.3196 222.884L63.717 224.048L64.3291 225.932L62.7265 224.768L61.1239 225.932L61.736 224.048L60.1334 222.884L62.1144 222.884L62.7265 221Z" fill="#FF0000"/>
<path d="M73.5355 235L70.7514 224.818H72.0043L74.1321 233.111H74.2315L76.3991 224.818H77.7912L79.9588 233.111H80.0582L82.1861 224.818H83.4389L80.6548 235H79.3821L77.1349 226.886H77.0554L74.8082 235H73.5355ZM86.3523 235.179C85.8684 235.179 85.4292 235.088 85.0348 234.906C84.6404 234.72 84.3272 234.453 84.0952 234.105C83.8632 233.754 83.7472 233.33 83.7472 232.832C83.7472 232.395 83.8333 232.04 84.0057 231.768C84.178 231.493 84.4084 231.278 84.6967 231.122C84.9851 230.966 85.3033 230.85 85.6513 230.774C86.0026 230.695 86.3556 230.632 86.7102 230.585C87.1742 230.526 87.5504 230.481 87.8388 230.451C88.1304 230.418 88.3426 230.363 88.4751 230.287C88.611 230.211 88.679 230.078 88.679 229.889V229.849C88.679 229.359 88.5447 228.978 88.2763 228.706C88.0111 228.434 87.6084 228.298 87.0682 228.298C86.508 228.298 86.0689 228.421 85.7507 228.666C85.4325 228.911 85.2088 229.173 85.0795 229.452L83.9659 229.054C84.1648 228.59 84.4299 228.229 84.7614 227.97C85.0961 227.708 85.4607 227.526 85.8551 227.423C86.2528 227.317 86.6439 227.264 87.0284 227.264C87.2737 227.264 87.5554 227.294 87.8736 227.354C88.1951 227.41 88.505 227.528 88.8033 227.707C89.1049 227.886 89.3551 228.156 89.554 228.517C89.7528 228.878 89.8523 229.362 89.8523 229.969V235H88.679V233.966H88.6193C88.5398 234.132 88.4072 234.309 88.2216 234.498C88.036 234.687 87.7891 234.848 87.4808 234.98C87.1726 235.113 86.7964 235.179 86.3523 235.179ZM86.5312 234.125C86.9953 234.125 87.3864 234.034 87.7045 233.852C88.026 233.669 88.268 233.434 88.4304 233.146C88.5961 232.857 88.679 232.554 88.679 232.236V231.162C88.6293 231.222 88.5199 231.276 88.3509 231.326C88.1851 231.372 87.9929 231.414 87.7741 231.45C87.5587 231.483 87.3482 231.513 87.1428 231.54C86.9406 231.563 86.7765 231.583 86.6506 231.599C86.3456 231.639 86.0606 231.704 85.7955 231.793C85.5336 231.879 85.3215 232.01 85.1591 232.186C85 232.358 84.9205 232.594 84.9205 232.892C84.9205 233.3 85.0713 233.608 85.3729 233.817C85.6778 234.022 86.0639 234.125 86.5312 234.125ZM93.1671 224.818V235H91.9938V224.818H93.1671ZM96.4893 224.818V235H95.3161V224.818H96.4893ZM101.84 235.159C101.104 235.159 100.47 234.997 99.9359 234.672C99.4056 234.344 98.9963 233.886 98.7079 233.3C98.4229 232.71 98.2804 232.024 98.2804 231.241C98.2804 230.459 98.4229 229.77 98.7079 229.173C98.9963 228.573 99.3973 228.106 99.911 227.771C100.428 227.433 101.031 227.264 101.721 227.264C102.118 227.264 102.511 227.33 102.899 227.463C103.287 227.596 103.64 227.811 103.958 228.109C104.276 228.404 104.53 228.795 104.719 229.283C104.907 229.77 105.002 230.37 105.002 231.082V231.58H99.1156V230.565H103.809C103.809 230.134 103.723 229.75 103.55 229.412C103.381 229.074 103.139 228.807 102.824 228.612C102.513 228.416 102.145 228.318 101.721 228.318C101.253 228.318 100.849 228.434 100.508 228.666C100.17 228.895 99.9094 229.193 99.7271 229.561C99.5448 229.929 99.4537 230.323 99.4537 230.744V231.42C99.4537 231.997 99.5531 232.486 99.752 232.887C99.9541 233.285 100.234 233.588 100.592 233.797C100.95 234.002 101.366 234.105 101.84 234.105C102.148 234.105 102.427 234.062 102.675 233.976C102.927 233.886 103.144 233.754 103.327 233.578C103.509 233.399 103.65 233.177 103.749 232.912L104.883 233.23C104.763 233.615 104.563 233.953 104.281 234.244C103.999 234.533 103.651 234.758 103.237 234.92C102.823 235.08 102.357 235.159 101.84 235.159ZM110.108 227.364V228.358H106.15V227.364H110.108ZM107.304 225.534H108.477V232.812C108.477 233.144 108.525 233.393 108.621 233.558C108.721 233.721 108.847 233.83 108.999 233.886C109.155 233.939 109.319 233.966 109.491 233.966C109.621 233.966 109.727 233.959 109.809 233.946C109.892 233.929 109.959 233.916 110.008 233.906L110.247 234.96C110.167 234.99 110.056 235.02 109.914 235.05C109.771 235.083 109.591 235.099 109.372 235.099C109.041 235.099 108.716 235.028 108.398 234.886C108.083 234.743 107.821 234.526 107.612 234.234C107.407 233.943 107.304 233.575 107.304 233.131V225.534ZM121.537 227.364C121.478 226.86 121.236 226.469 120.812 226.19C120.387 225.912 119.867 225.773 119.251 225.773C118.8 225.773 118.405 225.846 118.067 225.991C117.733 226.137 117.471 226.338 117.282 226.593C117.096 226.848 117.003 227.138 117.003 227.463C117.003 227.735 117.068 227.969 117.197 228.164C117.33 228.356 117.499 228.517 117.704 228.646C117.91 228.772 118.125 228.877 118.351 228.96C118.576 229.039 118.783 229.104 118.972 229.153L120.006 229.432C120.271 229.501 120.566 229.598 120.891 229.72C121.219 229.843 121.532 230.01 121.831 230.222C122.132 230.431 122.381 230.7 122.577 231.028C122.772 231.356 122.87 231.759 122.87 232.236C122.87 232.786 122.726 233.283 122.437 233.727C122.152 234.171 121.735 234.524 121.184 234.786C120.638 235.048 119.973 235.179 119.191 235.179C118.462 235.179 117.83 235.061 117.297 234.826C116.766 234.591 116.349 234.263 116.044 233.842C115.742 233.421 115.572 232.932 115.532 232.375H116.805C116.838 232.759 116.967 233.078 117.192 233.33C117.421 233.578 117.709 233.764 118.057 233.886C118.409 234.006 118.787 234.065 119.191 234.065C119.662 234.065 120.084 233.989 120.459 233.837C120.833 233.681 121.13 233.465 121.349 233.19C121.567 232.912 121.677 232.587 121.677 232.216C121.677 231.878 121.582 231.603 121.393 231.391C121.204 231.179 120.956 231.006 120.648 230.874C120.339 230.741 120.006 230.625 119.648 230.526L118.395 230.168C117.6 229.939 116.97 229.612 116.506 229.188C116.042 228.764 115.81 228.209 115.81 227.523C115.81 226.953 115.964 226.455 116.273 226.031C116.584 225.604 117.002 225.272 117.525 225.037C118.052 224.798 118.641 224.679 119.29 224.679C119.947 224.679 120.53 224.797 121.04 225.032C121.551 225.264 121.955 225.582 122.253 225.987C122.555 226.391 122.714 226.85 122.731 227.364H121.537ZM127.94 235.159C127.204 235.159 126.569 234.997 126.036 234.672C125.505 234.344 125.096 233.886 124.808 233.3C124.522 232.71 124.38 232.024 124.38 231.241C124.38 230.459 124.522 229.77 124.808 229.173C125.096 228.573 125.497 228.106 126.011 227.771C126.528 227.433 127.131 227.264 127.82 227.264C128.218 227.264 128.611 227.33 128.999 227.463C129.386 227.596 129.739 227.811 130.058 228.109C130.376 228.404 130.629 228.795 130.818 229.283C131.007 229.77 131.102 230.37 131.102 231.082V231.58H125.215V230.565H129.908C129.908 230.134 129.822 229.75 129.65 229.412C129.481 229.074 129.239 228.807 128.924 228.612C128.612 228.416 128.245 228.318 127.82 228.318C127.353 228.318 126.949 228.434 126.607 228.666C126.269 228.895 126.009 229.193 125.827 229.561C125.644 229.929 125.553 230.323 125.553 230.744V231.42C125.553 231.997 125.653 232.486 125.852 232.887C126.054 233.285 126.334 233.588 126.692 233.797C127.05 234.002 127.466 234.105 127.94 234.105C128.248 234.105 128.526 234.062 128.775 233.976C129.027 233.886 129.244 233.754 129.426 233.578C129.608 233.399 129.749 233.177 129.849 232.912L130.982 233.23C130.863 233.615 130.662 233.953 130.381 234.244C130.099 234.533 129.751 234.758 129.337 234.92C128.922 235.08 128.457 235.159 127.94 235.159ZM136.088 235.159C135.352 235.159 134.718 234.997 134.184 234.672C133.654 234.344 133.244 233.886 132.956 233.3C132.671 232.71 132.528 232.024 132.528 231.241C132.528 230.459 132.671 229.77 132.956 229.173C133.244 228.573 133.645 228.106 134.159 227.771C134.676 227.433 135.279 227.264 135.969 227.264C136.366 227.264 136.759 227.33 137.147 227.463C137.535 227.596 137.888 227.811 138.206 228.109C138.524 228.404 138.778 228.795 138.967 229.283C139.156 229.77 139.25 230.37 139.25 231.082V231.58H133.364V230.565H138.057C138.057 230.134 137.971 229.75 137.798 229.412C137.629 229.074 137.387 228.807 137.072 228.612C136.761 228.416 136.393 228.318 135.969 228.318C135.501 228.318 135.097 228.434 134.756 228.666C134.418 228.895 134.157 229.193 133.975 229.561C133.793 229.929 133.702 230.323 133.702 230.744V231.42C133.702 231.997 133.801 232.486 134 232.887C134.202 233.285 134.482 233.588 134.84 233.797C135.198 234.002 135.614 234.105 136.088 234.105C136.396 234.105 136.675 234.062 136.923 233.976C137.175 233.886 137.392 233.754 137.575 233.578C137.757 233.399 137.898 233.177 137.997 232.912L139.131 233.23C139.011 233.615 138.811 233.953 138.529 234.244C138.247 234.533 137.899 234.758 137.485 234.92C137.071 235.08 136.605 235.159 136.088 235.159ZM143.918 235.159C143.282 235.159 142.72 234.998 142.233 234.677C141.746 234.352 141.365 233.895 141.089 233.305C140.814 232.711 140.677 232.01 140.677 231.202C140.677 230.4 140.814 229.704 141.089 229.114C141.365 228.524 141.747 228.068 142.238 227.746C142.728 227.425 143.295 227.264 143.938 227.264C144.435 227.264 144.828 227.347 145.116 227.513C145.408 227.675 145.63 227.861 145.783 228.07C145.938 228.275 146.059 228.444 146.146 228.577H146.245V224.818H147.418V235H146.285V233.827H146.146C146.059 233.966 145.937 234.142 145.778 234.354C145.619 234.562 145.392 234.75 145.097 234.915C144.802 235.078 144.409 235.159 143.918 235.159ZM144.077 234.105C144.548 234.105 144.946 233.982 145.271 233.737C145.595 233.489 145.842 233.146 146.011 232.708C146.18 232.267 146.265 231.759 146.265 231.182C146.265 230.612 146.182 230.113 146.016 229.685C145.851 229.254 145.605 228.92 145.281 228.681C144.956 228.439 144.555 228.318 144.077 228.318C143.58 228.318 143.166 228.446 142.835 228.701C142.506 228.953 142.259 229.296 142.094 229.73C141.931 230.161 141.85 230.645 141.85 231.182C141.85 231.725 141.933 232.219 142.099 232.663C142.268 233.104 142.516 233.455 142.844 233.717C143.176 233.976 143.587 234.105 144.077 234.105Z" fill="white"/>
<rect x="60" y="246" width="350" height="98" rx="8" fill="#3A3A3A"/>
<path d="M72.4659 259.818V270H71.233V259.818H72.4659ZM75.9522 265.406V270H74.7789V262.364H75.9125V263.557H76.0119C76.1909 263.169 76.4627 262.857 76.8272 262.622C77.1918 262.384 77.6625 262.264 78.2392 262.264C78.7562 262.264 79.2086 262.37 79.5964 262.582C79.9842 262.791 80.2858 263.109 80.5012 263.537C80.7167 263.961 80.8244 264.498 80.8244 265.148V270H79.6511V265.227C79.6511 264.627 79.4953 264.16 79.1838 263.825C78.8722 263.487 78.4447 263.318 77.9011 263.318C77.5266 263.318 77.1918 263.399 76.8968 263.562C76.6052 263.724 76.3748 263.961 76.2058 264.273C76.0368 264.584 75.9522 264.962 75.9522 265.406ZM82.9684 272.864V262.364H84.1019V263.577H84.2411C84.3273 263.444 84.4466 263.275 84.5991 263.07C84.7549 262.861 84.9769 262.675 85.2653 262.513C85.5569 262.347 85.9513 262.264 86.4485 262.264C87.0915 262.264 87.6583 262.425 88.1488 262.746C88.6393 263.068 89.0221 263.524 89.2972 264.114C89.5723 264.704 89.7099 265.4 89.7099 266.202C89.7099 267.01 89.5723 267.711 89.2972 268.305C89.0221 268.895 88.641 269.352 88.1538 269.677C87.6665 269.998 87.1048 270.159 86.4684 270.159C85.9779 270.159 85.5851 270.078 85.2901 269.915C84.9951 269.75 84.7681 269.562 84.609 269.354C84.4499 269.142 84.3273 268.966 84.2411 268.827H84.1417V272.864H82.9684ZM84.1218 266.182C84.1218 266.759 84.2063 267.267 84.3754 267.708C84.5444 268.146 84.7913 268.489 85.1161 268.737C85.4409 268.982 85.8387 269.105 86.3093 269.105C86.7998 269.105 87.2092 268.976 87.5373 268.717C87.8687 268.455 88.1173 268.104 88.283 267.663C88.4521 267.219 88.5366 266.725 88.5366 266.182C88.5366 265.645 88.4537 265.161 88.288 264.73C88.1256 264.296 87.8787 263.953 87.5472 263.701C87.2191 263.446 86.8065 263.318 86.3093 263.318C85.832 263.318 85.431 263.439 85.1062 263.681C84.7814 263.92 84.5361 264.254 84.3704 264.685C84.2047 265.113 84.1218 265.612 84.1218 266.182ZM96.3121 266.878V262.364H97.4854V270H96.3121V268.707H96.2326C96.0536 269.095 95.7752 269.425 95.3974 269.697C95.0195 269.965 94.5423 270.099 93.9656 270.099C93.4883 270.099 93.064 269.995 92.6928 269.786C92.3216 269.574 92.0299 269.256 91.8178 268.832C91.6057 268.404 91.4996 267.866 91.4996 267.216V262.364H92.6729V267.136C92.6729 267.693 92.8287 268.137 93.1403 268.469C93.4551 268.8 93.8562 268.966 94.3434 268.966C94.6351 268.966 94.9317 268.891 95.2333 268.742C95.5382 268.593 95.7934 268.364 95.9989 268.056C96.2077 267.748 96.3121 267.355 96.3121 266.878ZM102.955 262.364V263.358H98.998V262.364H102.955ZM100.151 260.534H101.325V267.812C101.325 268.144 101.373 268.393 101.469 268.558C101.568 268.721 101.694 268.83 101.847 268.886C102.003 268.939 102.167 268.966 102.339 268.966C102.468 268.966 102.574 268.959 102.657 268.946C102.74 268.929 102.806 268.916 102.856 268.906L103.095 269.96C103.015 269.99 102.904 270.02 102.762 270.05C102.619 270.083 102.438 270.099 102.22 270.099C101.888 270.099 101.563 270.028 101.245 269.886C100.93 269.743 100.669 269.526 100.46 269.234C100.254 268.943 100.151 268.575 100.151 268.131V260.534ZM114.385 262.364C114.325 261.86 114.084 261.469 113.659 261.19C113.235 260.912 112.715 260.773 112.098 260.773C111.647 260.773 111.253 260.846 110.915 260.991C110.58 261.137 110.318 261.338 110.129 261.593C109.944 261.848 109.851 262.138 109.851 262.463C109.851 262.735 109.916 262.969 110.045 263.164C110.177 263.356 110.347 263.517 110.552 263.646C110.758 263.772 110.973 263.877 111.198 263.96C111.424 264.039 111.631 264.104 111.82 264.153L112.854 264.432C113.119 264.501 113.414 264.598 113.739 264.72C114.067 264.843 114.38 265.01 114.678 265.222C114.98 265.431 115.229 265.7 115.424 266.028C115.62 266.356 115.718 266.759 115.718 267.236C115.718 267.786 115.573 268.283 115.285 268.727C115 269.171 114.582 269.524 114.032 269.786C113.485 270.048 112.821 270.179 112.039 270.179C111.309 270.179 110.678 270.061 110.144 269.826C109.614 269.591 109.196 269.263 108.892 268.842C108.59 268.421 108.419 267.932 108.379 267.375H109.652C109.685 267.759 109.815 268.078 110.04 268.33C110.269 268.578 110.557 268.764 110.905 268.886C111.256 269.006 111.634 269.065 112.039 269.065C112.509 269.065 112.932 268.989 113.306 268.837C113.681 268.681 113.977 268.465 114.196 268.19C114.415 267.912 114.524 267.587 114.524 267.216C114.524 266.878 114.43 266.603 114.241 266.391C114.052 266.179 113.803 266.006 113.495 265.874C113.187 265.741 112.854 265.625 112.496 265.526L111.243 265.168C110.448 264.939 109.818 264.612 109.354 264.188C108.89 263.764 108.658 263.209 108.658 262.523C108.658 261.953 108.812 261.455 109.12 261.031C109.432 260.604 109.849 260.272 110.373 260.037C110.9 259.798 111.488 259.679 112.138 259.679C112.794 259.679 113.378 259.797 113.888 260.032C114.398 260.264 114.803 260.582 115.101 260.987C115.403 261.391 115.562 261.85 115.578 262.364H114.385ZM120.787 270.159C120.051 270.159 119.417 269.997 118.883 269.672C118.353 269.344 117.944 268.886 117.655 268.3C117.37 267.71 117.228 267.024 117.228 266.241C117.228 265.459 117.37 264.77 117.655 264.173C117.944 263.573 118.345 263.106 118.858 262.771C119.375 262.433 119.979 262.264 120.668 262.264C121.066 262.264 121.458 262.33 121.846 262.463C122.234 262.596 122.587 262.811 122.905 263.109C123.223 263.404 123.477 263.795 123.666 264.283C123.855 264.77 123.949 265.37 123.949 266.082V266.58H118.063V265.565H122.756C122.756 265.134 122.67 264.75 122.498 264.412C122.328 264.074 122.087 263.807 121.772 263.612C121.46 263.416 121.092 263.318 120.668 263.318C120.201 263.318 119.796 263.434 119.455 263.666C119.117 263.895 118.857 264.193 118.674 264.561C118.492 264.929 118.401 265.323 118.401 265.744V266.42C118.401 266.997 118.5 267.486 118.699 267.887C118.901 268.285 119.181 268.588 119.539 268.797C119.897 269.002 120.313 269.105 120.787 269.105C121.096 269.105 121.374 269.062 121.623 268.976C121.874 268.886 122.092 268.754 122.274 268.578C122.456 268.399 122.597 268.177 122.696 267.912L123.83 268.23C123.711 268.615 123.51 268.953 123.228 269.244C122.947 269.533 122.599 269.758 122.184 269.92C121.77 270.08 121.304 270.159 120.787 270.159ZM128.936 270.159C128.2 270.159 127.565 269.997 127.032 269.672C126.501 269.344 126.092 268.886 125.804 268.3C125.519 267.71 125.376 267.024 125.376 266.241C125.376 265.459 125.519 264.77 125.804 264.173C126.092 263.573 126.493 263.106 127.007 262.771C127.524 262.433 128.127 262.264 128.816 262.264C129.214 262.264 129.607 262.33 129.995 262.463C130.382 262.596 130.735 262.811 131.054 263.109C131.372 263.404 131.625 263.795 131.814 264.283C132.003 264.77 132.098 265.37 132.098 266.082V266.58H126.211V265.565H130.904C130.904 265.134 130.818 264.75 130.646 264.412C130.477 264.074 130.235 263.807 129.92 263.612C129.609 263.416 129.241 263.318 128.816 263.318C128.349 263.318 127.945 263.434 127.603 263.666C127.265 263.895 127.005 264.193 126.823 264.561C126.641 264.929 126.549 265.323 126.549 265.744V266.42C126.549 266.997 126.649 267.486 126.848 267.887C127.05 268.285 127.33 268.588 127.688 268.797C128.046 269.002 128.462 269.105 128.936 269.105C129.244 269.105 129.522 269.062 129.771 268.976C130.023 268.886 130.24 268.754 130.422 268.578C130.605 268.399 130.745 268.177 130.845 267.912L131.978 268.23C131.859 268.615 131.658 268.953 131.377 269.244C131.095 269.533 130.747 269.758 130.333 269.92C129.918 270.08 129.453 270.159 128.936 270.159ZM136.766 270.159C136.13 270.159 135.568 269.998 135.081 269.677C134.593 269.352 134.212 268.895 133.937 268.305C133.662 267.711 133.525 267.01 133.525 266.202C133.525 265.4 133.662 264.704 133.937 264.114C134.212 263.524 134.595 263.068 135.086 262.746C135.576 262.425 136.143 262.264 136.786 262.264C137.283 262.264 137.676 262.347 137.964 262.513C138.256 262.675 138.478 262.861 138.63 263.07C138.786 263.275 138.907 263.444 138.993 263.577H139.093V259.818H140.266V270H139.132V268.827H138.993C138.907 268.966 138.784 269.142 138.625 269.354C138.466 269.562 138.239 269.75 137.944 269.915C137.649 270.078 137.257 270.159 136.766 270.159ZM136.925 269.105C137.396 269.105 137.793 268.982 138.118 268.737C138.443 268.489 138.69 268.146 138.859 267.708C139.028 267.267 139.113 266.759 139.113 266.182C139.113 265.612 139.03 265.113 138.864 264.685C138.698 264.254 138.453 263.92 138.128 263.681C137.803 263.439 137.402 263.318 136.925 263.318C136.428 263.318 136.014 263.446 135.682 263.701C135.354 263.953 135.107 264.296 134.941 264.73C134.779 265.161 134.698 265.645 134.698 266.182C134.698 266.725 134.781 267.219 134.946 267.663C135.115 268.104 135.364 268.455 135.692 268.717C136.024 268.976 136.435 269.105 136.925 269.105ZM146.674 270V259.818H150.115C150.913 259.818 151.566 259.962 152.074 260.251C152.584 260.536 152.962 260.922 153.207 261.409C153.452 261.896 153.575 262.44 153.575 263.04C153.575 263.64 153.452 264.185 153.207 264.675C152.965 265.166 152.591 265.557 152.083 265.849C151.576 266.137 150.927 266.281 150.135 266.281H147.669V265.188H150.095C150.642 265.188 151.081 265.093 151.412 264.904C151.744 264.715 151.984 264.46 152.133 264.138C152.286 263.814 152.362 263.447 152.362 263.04C152.362 262.632 152.286 262.268 152.133 261.946C151.984 261.625 151.742 261.373 151.407 261.19C151.073 261.005 150.628 260.912 150.075 260.912H147.907V270H146.674ZM156.575 265.406V270H155.402V259.818H156.575V263.557H156.675C156.854 263.162 157.122 262.849 157.48 262.617C157.841 262.382 158.322 262.264 158.922 262.264C159.442 262.264 159.898 262.369 160.289 262.577C160.68 262.783 160.983 263.099 161.199 263.527C161.418 263.951 161.527 264.491 161.527 265.148V270H160.354V265.227C160.354 264.621 160.196 264.152 159.881 263.82C159.57 263.486 159.137 263.318 158.584 263.318C158.199 263.318 157.855 263.399 157.55 263.562C157.248 263.724 157.009 263.961 156.834 264.273C156.661 264.584 156.575 264.962 156.575 265.406ZM163.673 270V262.364H164.807V263.517H164.887C165.026 263.139 165.278 262.833 165.642 262.597C166.007 262.362 166.418 262.244 166.875 262.244C166.961 262.244 167.069 262.246 167.198 262.249C167.328 262.253 167.425 262.258 167.492 262.264V263.457C167.452 263.447 167.361 263.433 167.218 263.413C167.079 263.389 166.932 263.378 166.776 263.378C166.405 263.378 166.073 263.456 165.781 263.612C165.493 263.764 165.264 263.976 165.095 264.248C164.93 264.516 164.847 264.823 164.847 265.168V270H163.673ZM171.13 270.179C170.646 270.179 170.207 270.088 169.812 269.906C169.418 269.72 169.105 269.453 168.873 269.105C168.641 268.754 168.525 268.33 168.525 267.832C168.525 267.395 168.611 267.04 168.783 266.768C168.955 266.493 169.186 266.278 169.474 266.122C169.762 265.966 170.081 265.85 170.429 265.774C170.78 265.695 171.133 265.632 171.488 265.585C171.952 265.526 172.328 265.481 172.616 265.451C172.908 265.418 173.12 265.363 173.252 265.287C173.388 265.211 173.456 265.078 173.456 264.889V264.849C173.456 264.359 173.322 263.978 173.054 263.706C172.788 263.434 172.386 263.298 171.846 263.298C171.285 263.298 170.846 263.421 170.528 263.666C170.21 263.911 169.986 264.173 169.857 264.452L168.743 264.054C168.942 263.59 169.207 263.229 169.539 262.97C169.873 262.708 170.238 262.526 170.632 262.423C171.03 262.317 171.421 262.264 171.806 262.264C172.051 262.264 172.333 262.294 172.651 262.354C172.972 262.41 173.282 262.528 173.581 262.707C173.882 262.886 174.132 263.156 174.331 263.517C174.53 263.878 174.63 264.362 174.63 264.969V270H173.456V268.966H173.397C173.317 269.132 173.185 269.309 172.999 269.498C172.813 269.687 172.566 269.848 172.258 269.98C171.95 270.113 171.574 270.179 171.13 270.179ZM171.309 269.125C171.773 269.125 172.164 269.034 172.482 268.852C172.803 268.669 173.045 268.434 173.208 268.146C173.373 267.857 173.456 267.554 173.456 267.236V266.162C173.407 266.222 173.297 266.276 173.128 266.326C172.962 266.372 172.77 266.414 172.551 266.45C172.336 266.483 172.126 266.513 171.92 266.54C171.718 266.563 171.554 266.583 171.428 266.599C171.123 266.639 170.838 266.704 170.573 266.793C170.311 266.879 170.099 267.01 169.936 267.186C169.777 267.358 169.698 267.594 169.698 267.892C169.698 268.3 169.849 268.608 170.15 268.817C170.455 269.022 170.841 269.125 171.309 269.125ZM182.18 264.074L181.126 264.372C181.06 264.196 180.962 264.026 180.833 263.86C180.707 263.691 180.535 263.552 180.316 263.442C180.097 263.333 179.817 263.278 179.476 263.278C179.008 263.278 178.619 263.386 178.307 263.602C177.999 263.814 177.845 264.084 177.845 264.412C177.845 264.704 177.951 264.934 178.163 265.103C178.375 265.272 178.707 265.413 179.157 265.526L180.291 265.804C180.974 265.97 181.483 266.223 181.817 266.565C182.152 266.903 182.319 267.339 182.319 267.872C182.319 268.31 182.193 268.701 181.942 269.045C181.693 269.39 181.345 269.662 180.898 269.861C180.45 270.06 179.93 270.159 179.336 270.159C178.558 270.159 177.913 269.99 177.403 269.652C176.892 269.314 176.569 268.82 176.433 268.17L177.547 267.892C177.653 268.303 177.853 268.611 178.148 268.817C178.447 269.022 178.836 269.125 179.317 269.125C179.863 269.125 180.298 269.009 180.619 268.777C180.944 268.542 181.106 268.26 181.106 267.932C181.106 267.667 181.014 267.445 180.828 267.266C180.642 267.083 180.357 266.947 179.973 266.858L178.7 266.56C178.001 266.394 177.487 266.137 177.159 265.789C176.834 265.438 176.672 264.999 176.672 264.472C176.672 264.041 176.793 263.66 177.035 263.328C177.28 262.997 177.613 262.737 178.034 262.548C178.458 262.359 178.939 262.264 179.476 262.264C180.231 262.264 180.825 262.43 181.256 262.761C181.69 263.093 181.998 263.53 182.18 264.074ZM187.287 270.159C186.551 270.159 185.917 269.997 185.383 269.672C184.853 269.344 184.444 268.886 184.155 268.3C183.87 267.71 183.728 267.024 183.728 266.241C183.728 265.459 183.87 264.77 184.155 264.173C184.444 263.573 184.845 263.106 185.358 262.771C185.875 262.433 186.479 262.264 187.168 262.264C187.566 262.264 187.958 262.33 188.346 262.463C188.734 262.596 189.087 262.811 189.405 263.109C189.723 263.404 189.977 263.795 190.166 264.283C190.355 264.77 190.449 265.37 190.449 266.082V266.58H184.563V265.565H189.256C189.256 265.134 189.17 264.75 188.998 264.412C188.828 264.074 188.587 263.807 188.272 263.612C187.96 263.416 187.592 263.318 187.168 263.318C186.701 263.318 186.296 263.434 185.955 263.666C185.617 263.895 185.357 264.193 185.174 264.561C184.992 264.929 184.901 265.323 184.901 265.744V266.42C184.901 266.997 185 267.486 185.199 267.887C185.401 268.285 185.681 268.588 186.039 268.797C186.397 269.002 186.813 269.105 187.287 269.105C187.596 269.105 187.874 269.062 188.123 268.976C188.374 268.886 188.592 268.754 188.774 268.578C188.956 268.399 189.097 268.177 189.196 267.912L190.33 268.23C190.211 268.615 190.01 268.953 189.728 269.244C189.447 269.533 189.099 269.758 188.684 269.92C188.27 270.08 187.804 270.159 187.287 270.159Z" fill="#767676"/>
</g>
<rect x="41" y="83" width="388" height="1" fill="#3F4D5D"/>
<g clip-path="url(#clip2_775_7567)">
<path fill-rule="evenodd" clip-rule="evenodd" d="M77.9521 50.5517V58.9842L80.8089 61.7809L83.6656 64.5775L83.7218 56.2664L83.778 47.9552L80.8651 45.0372L77.9521 42.1191V50.5517Z" fill="#FAFBFB"/>
<path fill-rule="evenodd" clip-rule="evenodd" d="M69.4062 48.2642V59.5285L72.3591 63.2649L75.312 67.0012L75.3708 55.8997L75.4295 44.7981L72.4179 40.9003L69.4062 37V48.2642Z" fill="#F9DB10"/>
<path fill-rule="evenodd" clip-rule="evenodd" d="M60.8369 51.0009V59.4334L63.6936 62.2301L66.5503 65.0268L66.6066 56.7156L66.6628 48.4044L63.7498 45.4864L60.8369 42.5684V51.0009Z" fill="#FCF16C"/>
</g>
<path d="M121.968 47.9091V61H119.2V47.9091H121.968ZM124.194 61V51.1818H126.789V52.9141H126.904C127.109 52.3388 127.45 51.8849 127.927 51.5526C128.404 51.2202 128.975 51.054 129.64 51.054C130.313 51.054 130.887 51.2223 131.36 51.5589C131.833 51.8913 132.148 52.343 132.306 52.9141H132.408C132.608 52.3516 132.97 51.902 133.494 51.5653C134.023 51.2244 134.647 51.054 135.367 51.054C136.284 51.054 137.027 51.3459 137.598 51.9297C138.173 52.5092 138.461 53.3317 138.461 54.397V61H135.744V54.9339C135.744 54.3885 135.6 53.9794 135.31 53.7067C135.02 53.4339 134.658 53.2976 134.223 53.2976C133.729 53.2976 133.343 53.4553 133.066 53.7706C132.789 54.0817 132.651 54.4929 132.651 55.0043V61H130.011V54.8764C130.011 54.3949 129.872 54.0114 129.595 53.7259C129.323 53.4403 128.963 53.2976 128.515 53.2976C128.213 53.2976 127.94 53.3743 127.697 53.5277C127.458 53.6768 127.269 53.8878 127.128 54.1605C126.987 54.429 126.917 54.7443 126.917 55.1065V61H124.194ZM140.612 64.6818V51.1818H143.297V52.831H143.418C143.537 52.5668 143.71 52.2983 143.936 52.0256C144.166 51.7486 144.464 51.5185 144.831 51.3352C145.202 51.1477 145.662 51.054 146.211 51.054C146.927 51.054 147.588 51.2415 148.193 51.6165C148.798 51.9872 149.282 52.5476 149.644 53.2976C150.006 54.0433 150.187 54.9787 150.187 56.1037C150.187 57.1989 150.01 58.1236 149.657 58.8778C149.307 59.6278 148.83 60.1967 148.225 60.5845C147.624 60.968 146.951 61.1598 146.205 61.1598C145.677 61.1598 145.227 61.0724 144.856 60.8977C144.49 60.723 144.189 60.5036 143.955 60.2393C143.721 59.9709 143.542 59.7003 143.418 59.4276H143.335V64.6818H140.612ZM143.278 56.0909C143.278 56.6747 143.358 57.1839 143.52 57.6186C143.682 58.0533 143.917 58.392 144.224 58.6349C144.53 58.8736 144.903 58.9929 145.342 58.9929C145.785 58.9929 146.16 58.8714 146.467 58.6286C146.774 58.3814 147.006 58.0405 147.164 57.6058C147.326 57.1669 147.407 56.6619 147.407 56.0909C147.407 55.5241 147.328 55.0256 147.17 54.5952C147.013 54.1648 146.78 53.8281 146.474 53.5852C146.167 53.3423 145.79 53.2209 145.342 53.2209C144.899 53.2209 144.524 53.3381 144.217 53.5724C143.915 53.8068 143.682 54.1392 143.52 54.5696C143.358 55 143.278 55.5071 143.278 56.0909ZM156.439 61.1918C155.446 61.1918 154.587 60.9808 153.863 60.5589C153.143 60.1328 152.586 59.5405 152.194 58.782C151.802 58.0192 151.606 57.1349 151.606 56.1293C151.606 55.1151 151.802 54.2287 152.194 53.4702C152.586 52.7074 153.143 52.1151 153.863 51.6932C154.587 51.267 155.446 51.054 156.439 51.054C157.432 51.054 158.288 51.267 159.008 51.6932C159.733 52.1151 160.291 52.7074 160.683 53.4702C161.075 54.2287 161.271 55.1151 161.271 56.1293C161.271 57.1349 161.075 58.0192 160.683 58.782C160.291 59.5405 159.733 60.1328 159.008 60.5589C158.288 60.9808 157.432 61.1918 156.439 61.1918ZM156.452 59.0824C156.903 59.0824 157.28 58.9545 157.583 58.6989C157.885 58.4389 158.113 58.0852 158.267 57.6378C158.425 57.1903 158.503 56.6811 158.503 56.1101C158.503 55.5391 158.425 55.0298 158.267 54.5824C158.113 54.1349 157.885 53.7812 157.583 53.5213C157.28 53.2614 156.903 53.1314 156.452 53.1314C155.996 53.1314 155.612 53.2614 155.301 53.5213C154.994 53.7812 154.762 54.1349 154.604 54.5824C154.451 55.0298 154.374 55.5391 154.374 56.1101C154.374 56.6811 154.451 57.1903 154.604 57.6378C154.762 58.0852 154.994 58.4389 155.301 58.6989C155.612 58.9545 155.996 59.0824 156.452 59.0824ZM163.042 61V51.1818H165.682V52.8949H165.784C165.963 52.2855 166.263 51.8253 166.685 51.5142C167.107 51.1989 167.593 51.0412 168.143 51.0412C168.279 51.0412 168.426 51.0497 168.584 51.0668C168.741 51.0838 168.88 51.1072 168.999 51.1371V53.5533C168.871 53.5149 168.694 53.4808 168.469 53.451C168.243 53.4212 168.036 53.4062 167.849 53.4062C167.448 53.4062 167.09 53.4936 166.775 53.6683C166.464 53.8388 166.216 54.0774 166.033 54.3842C165.854 54.6911 165.765 55.0447 165.765 55.4453V61H163.042ZM176.121 51.1818V53.2273H170.209V51.1818H176.121ZM171.551 48.8295H174.274V57.983C174.274 58.2344 174.313 58.4304 174.389 58.571C174.466 58.7074 174.572 58.8033 174.709 58.8587C174.849 58.9141 175.011 58.9418 175.195 58.9418C175.322 58.9418 175.45 58.9311 175.578 58.9098C175.706 58.8842 175.804 58.8651 175.872 58.8523L176.3 60.8786C176.164 60.9212 175.972 60.9702 175.725 61.0256C175.478 61.0852 175.178 61.1214 174.824 61.1342C174.168 61.1598 173.592 61.0724 173.098 60.8722C172.608 60.6719 172.227 60.3608 171.954 59.9389C171.681 59.517 171.547 58.9844 171.551 58.3409V48.8295ZM185.059 61L181.313 47.9091H184.337L186.504 57.005H186.612L189.003 47.9091H191.592L193.976 57.0241H194.091L196.258 47.9091H199.281L195.536 61H192.838L190.345 52.4411H190.243L187.757 61H185.059ZM202.457 61.1854C201.83 61.1854 201.272 61.0767 200.782 60.8594C200.292 60.6378 199.904 60.3118 199.619 59.8814C199.337 59.4467 199.197 58.9055 199.197 58.2578C199.197 57.7124 199.297 57.2543 199.497 56.8835C199.697 56.5128 199.97 56.2145 200.315 55.9886C200.661 55.7628 201.053 55.5923 201.491 55.4773C201.935 55.3622 202.399 55.2812 202.885 55.2344C203.456 55.1747 203.916 55.1193 204.266 55.0682C204.615 55.0128 204.869 54.9318 205.026 54.8253C205.184 54.7187 205.263 54.5611 205.263 54.3523V54.3139C205.263 53.9091 205.135 53.5959 204.879 53.3743C204.628 53.1527 204.27 53.0419 203.805 53.0419C203.315 53.0419 202.925 53.1506 202.636 53.3679C202.346 53.581 202.154 53.8494 202.06 54.1733L199.542 53.9688C199.67 53.3722 199.921 52.8565 200.296 52.4219C200.671 51.983 201.155 51.6463 201.747 51.4119C202.344 51.1733 203.034 51.054 203.818 51.054C204.364 51.054 204.886 51.1179 205.384 51.2457C205.887 51.3736 206.332 51.5717 206.72 51.8402C207.112 52.1087 207.421 52.4538 207.647 52.8757C207.873 53.2933 207.986 53.794 207.986 54.3778V61H205.403V59.6385H205.327C205.169 59.9453 204.958 60.2159 204.694 60.4503C204.43 60.6804 204.112 60.8615 203.741 60.9936C203.371 61.1214 202.942 61.1854 202.457 61.1854ZM203.237 59.3061C203.637 59.3061 203.991 59.2273 204.298 59.0696C204.604 58.9077 204.845 58.6903 205.02 58.4176C205.195 58.1449 205.282 57.8359 205.282 57.4908V56.4489C205.197 56.5043 205.08 56.5554 204.93 56.6023C204.786 56.6449 204.621 56.6854 204.438 56.7237C204.255 56.7578 204.072 56.7898 203.888 56.8196C203.705 56.8452 203.539 56.8686 203.39 56.8899C203.07 56.9368 202.791 57.0114 202.553 57.1136C202.314 57.2159 202.129 57.3544 201.996 57.5291C201.864 57.6996 201.798 57.9126 201.798 58.1683C201.798 58.5391 201.933 58.8224 202.201 59.0185C202.474 59.2102 202.819 59.3061 203.237 59.3061ZM212.821 47.9091V61H210.098V47.9091H212.821ZM217.726 47.9091V61H215.003V47.9091H217.726ZM224.381 61.1918C223.371 61.1918 222.502 60.9872 221.773 60.5781C221.049 60.1648 220.491 59.581 220.099 58.8267C219.707 58.0682 219.511 57.1712 219.511 56.1357C219.511 55.1257 219.707 54.2393 220.099 53.4766C220.491 52.7138 221.043 52.1193 221.754 51.6932C222.47 51.267 223.31 51.054 224.273 51.054C224.92 51.054 225.523 51.1584 226.082 51.3672C226.644 51.5717 227.134 51.8807 227.552 52.294C227.974 52.7074 228.302 53.2273 228.536 53.8537C228.771 54.4759 228.888 55.2045 228.888 56.0398V56.7876H220.597V55.1001H226.325C226.325 54.7081 226.239 54.3608 226.069 54.0582C225.898 53.7557 225.662 53.5192 225.359 53.3487C225.061 53.174 224.714 53.0866 224.317 53.0866C223.904 53.0866 223.538 53.1825 223.218 53.3743C222.903 53.5618 222.656 53.8153 222.477 54.1349C222.298 54.4503 222.206 54.8018 222.202 55.1896V56.794C222.202 57.2798 222.291 57.6996 222.47 58.0533C222.653 58.407 222.911 58.6797 223.244 58.8714C223.576 59.0632 223.97 59.1591 224.426 59.1591C224.729 59.1591 225.006 59.1165 225.257 59.0312C225.509 58.946 225.724 58.8182 225.903 58.6477C226.082 58.4773 226.218 58.2685 226.312 58.0213L228.83 58.1875C228.702 58.7926 228.44 59.321 228.044 59.7727C227.652 60.2202 227.145 60.5696 226.523 60.821C225.905 61.0682 225.191 61.1918 224.381 61.1918ZM235.887 51.1818V53.2273H229.974V51.1818H235.887ZM231.317 48.8295H234.04V57.983C234.04 58.2344 234.078 58.4304 234.155 58.571C234.232 58.7074 234.338 58.8033 234.474 58.8587C234.615 58.9141 234.777 58.9418 234.96 58.9418C235.088 58.9418 235.216 58.9311 235.344 58.9098C235.472 58.8842 235.57 58.8651 235.638 58.8523L236.066 60.8786C235.93 60.9212 235.738 60.9702 235.491 61.0256C235.244 61.0852 234.943 61.1214 234.589 61.1342C233.933 61.1598 233.358 61.0724 232.864 60.8722C232.374 60.6719 231.992 60.3608 231.719 59.9389C231.447 59.517 231.313 58.9844 231.317 58.3409V48.8295ZM248.98 51.674C248.928 51.1584 248.709 50.7578 248.321 50.4723C247.933 50.1868 247.407 50.044 246.742 50.044C246.291 50.044 245.909 50.108 245.598 50.2358C245.287 50.3594 245.048 50.532 244.882 50.7536C244.72 50.9751 244.639 51.2266 244.639 51.5078C244.631 51.7422 244.68 51.9467 244.786 52.1214C244.897 52.2962 245.048 52.4474 245.24 52.5753C245.432 52.6989 245.654 52.8075 245.905 52.9013C246.156 52.9908 246.425 53.0675 246.71 53.1314L247.887 53.4126C248.458 53.5405 248.982 53.7109 249.459 53.924C249.936 54.1371 250.35 54.3991 250.699 54.7102C251.048 55.0213 251.319 55.3878 251.511 55.8097C251.707 56.2315 251.807 56.7152 251.811 57.2607C251.807 58.0618 251.602 58.7564 251.198 59.3445C250.797 59.9283 250.218 60.3821 249.459 60.706C248.705 61.0256 247.795 61.1854 246.73 61.1854C245.673 61.1854 244.752 61.0234 243.968 60.6996C243.188 60.3757 242.579 59.8963 242.14 59.2614C241.705 58.6222 241.477 57.8317 241.456 56.8899H244.134C244.164 57.3288 244.29 57.6953 244.512 57.9893C244.737 58.2791 245.038 58.4986 245.413 58.6477C245.792 58.7926 246.22 58.8651 246.698 58.8651C247.166 58.8651 247.573 58.7969 247.919 58.6605C248.268 58.5241 248.539 58.3345 248.73 58.0916C248.922 57.8487 249.018 57.5696 249.018 57.2543C249.018 56.9602 248.931 56.7131 248.756 56.5128C248.585 56.3125 248.334 56.142 248.002 56.0014C247.673 55.8608 247.271 55.733 246.794 55.6179L245.368 55.2599C244.264 54.9915 243.393 54.5717 242.754 54.0007C242.115 53.4297 241.797 52.6605 241.801 51.6932C241.797 50.9006 242.008 50.2081 242.434 49.6158C242.865 49.0234 243.455 48.5611 244.205 48.2287C244.955 47.8963 245.807 47.7301 246.762 47.7301C247.733 47.7301 248.581 47.8963 249.306 48.2287C250.034 48.5611 250.601 49.0234 251.006 49.6158C251.411 50.2081 251.619 50.8942 251.632 51.674H248.98ZM258.096 61.1918C257.086 61.1918 256.217 60.9872 255.488 60.5781C254.764 60.1648 254.206 59.581 253.814 58.8267C253.422 58.0682 253.225 57.1712 253.225 56.1357C253.225 55.1257 253.422 54.2393 253.814 53.4766C254.206 52.7138 254.757 52.1193 255.469 51.6932C256.185 51.267 257.025 51.054 257.988 51.054C258.635 51.054 259.238 51.1584 259.797 51.3672C260.359 51.5717 260.849 51.8807 261.267 52.294C261.689 52.7074 262.017 53.2273 262.251 53.8537C262.485 54.4759 262.603 55.2045 262.603 56.0398V56.7876H254.312V55.1001H260.039C260.039 54.7081 259.954 54.3608 259.784 54.0582C259.613 53.7557 259.377 53.5192 259.074 53.3487C258.776 53.174 258.429 53.0866 258.032 53.0866C257.619 53.0866 257.252 53.1825 256.933 53.3743C256.618 53.5618 256.37 53.8153 256.191 54.1349C256.012 54.4503 255.921 54.8018 255.917 55.1896V56.794C255.917 57.2798 256.006 57.6996 256.185 58.0533C256.368 58.407 256.626 58.6797 256.958 58.8714C257.291 59.0632 257.685 59.1591 258.141 59.1591C258.444 59.1591 258.721 59.1165 258.972 59.0312C259.223 58.946 259.439 58.8182 259.618 58.6477C259.797 58.4773 259.933 58.2685 260.027 58.0213L262.545 58.1875C262.417 58.7926 262.155 59.321 261.759 59.7727C261.367 60.2202 260.86 60.5696 260.238 60.821C259.62 61.0682 258.906 61.1918 258.096 61.1918ZM268.854 61.1918C267.844 61.1918 266.975 60.9872 266.246 60.5781C265.522 60.1648 264.963 59.581 264.571 58.8267C264.179 58.0682 263.983 57.1712 263.983 56.1357C263.983 55.1257 264.179 54.2393 264.571 53.4766C264.963 52.7138 265.515 52.1193 266.227 51.6932C266.943 51.267 267.782 51.054 268.745 51.054C269.393 51.054 269.996 51.1584 270.554 51.3672C271.117 51.5717 271.607 51.8807 272.025 52.294C272.446 52.7074 272.775 53.2273 273.009 53.8537C273.243 54.4759 273.36 55.2045 273.36 56.0398V56.7876H265.07V55.1001H270.797C270.797 54.7081 270.712 54.3608 270.542 54.0582C270.371 53.7557 270.135 53.5192 269.832 53.3487C269.534 53.174 269.186 53.0866 268.79 53.0866C268.377 53.0866 268.01 53.1825 267.691 53.3743C267.375 53.5618 267.128 53.8153 266.949 54.1349C266.77 54.4503 266.679 54.8018 266.674 55.1896V56.794C266.674 57.2798 266.764 57.6996 266.943 58.0533C267.126 58.407 267.384 58.6797 267.716 58.8714C268.049 59.0632 268.443 59.1591 268.899 59.1591C269.201 59.1591 269.478 59.1165 269.73 59.0312C269.981 58.946 270.196 58.8182 270.375 58.6477C270.554 58.4773 270.691 58.2685 270.784 58.0213L273.303 58.1875C273.175 58.7926 272.913 59.321 272.517 59.7727C272.125 60.2202 271.618 60.5696 270.995 60.821C270.377 61.0682 269.664 61.1918 268.854 61.1918ZM278.755 61.1598C278.01 61.1598 277.334 60.968 276.729 60.5845C276.128 60.1967 275.651 59.6278 275.297 58.8778C274.948 58.1236 274.773 57.1989 274.773 56.1037C274.773 54.9787 274.954 54.0433 275.316 53.2976C275.679 52.5476 276.16 51.9872 276.761 51.6165C277.366 51.2415 278.029 51.054 278.749 51.054C279.299 51.054 279.757 51.1477 280.123 51.3352C280.494 51.5185 280.792 51.7486 281.018 52.0256C281.248 52.2983 281.423 52.5668 281.542 52.831H281.625V47.9091H284.342V61H281.657V59.4276H281.542C281.414 59.7003 281.233 59.9709 280.999 60.2393C280.769 60.5036 280.468 60.723 280.098 60.8977C279.731 61.0724 279.284 61.1598 278.755 61.1598ZM279.618 58.9929C280.057 58.9929 280.428 58.8736 280.73 58.6349C281.037 58.392 281.272 58.0533 281.434 57.6186C281.6 57.1839 281.683 56.6747 281.683 56.0909C281.683 55.5071 281.602 55 281.44 54.5696C281.278 54.1392 281.044 53.8068 280.737 53.5724C280.43 53.3381 280.057 53.2209 279.618 53.2209C279.171 53.2209 278.794 53.3423 278.487 53.5852C278.18 53.8281 277.948 54.1648 277.79 54.5952C277.632 55.0256 277.554 55.5241 277.554 56.0909C277.554 56.6619 277.632 57.1669 277.79 57.6058C277.952 58.0405 278.184 58.3814 278.487 58.6286C278.794 58.8714 279.171 58.9929 279.618 58.9929ZM290.798 61V47.9091H295.963C296.956 47.9091 297.801 48.0987 298.5 48.478C299.199 48.853 299.732 49.375 300.098 50.044C300.469 50.7088 300.654 51.4759 300.654 52.3452C300.654 53.2145 300.467 53.9815 300.092 54.6463C299.717 55.3111 299.174 55.8288 298.462 56.1996C297.755 56.5703 296.898 56.7557 295.892 56.7557H292.6V54.5376H295.445C295.978 54.5376 296.417 54.446 296.762 54.2628C297.111 54.0753 297.371 53.8175 297.542 53.4893C297.716 53.157 297.804 52.7756 297.804 52.3452C297.804 51.9105 297.716 51.5312 297.542 51.2074C297.371 50.8793 297.111 50.6257 296.762 50.4467C296.412 50.2635 295.969 50.1719 295.432 50.1719H293.566V61H290.798ZM305.124 55.3239V61H302.401V47.9091H305.047V52.9141H305.162C305.384 52.3345 305.742 51.8807 306.236 51.5526C306.731 51.2202 307.351 51.054 308.096 51.054C308.778 51.054 309.373 51.2031 309.88 51.5014C310.391 51.7955 310.787 52.2195 311.069 52.7734C311.354 53.3232 311.495 53.9815 311.491 54.7486V61H308.768V55.2344C308.772 54.6293 308.618 54.1584 308.307 53.8217C308.001 53.4851 307.57 53.3168 307.016 53.3168C306.645 53.3168 306.317 53.3956 306.032 53.5533C305.751 53.7109 305.529 53.9411 305.367 54.2436C305.209 54.5419 305.128 54.902 305.124 55.3239ZM313.634 61V51.1818H316.273V52.8949H316.376C316.555 52.2855 316.855 51.8253 317.277 51.5142C317.699 51.1989 318.185 51.0412 318.734 51.0412C318.871 51.0412 319.018 51.0497 319.175 51.0668C319.333 51.0838 319.472 51.1072 319.591 51.1371V53.5533C319.463 53.5149 319.286 53.4808 319.06 53.451C318.835 53.4212 318.628 53.4062 318.44 53.4062C318.04 53.4062 317.682 53.4936 317.366 53.6683C317.055 53.8388 316.808 54.0774 316.625 54.3842C316.446 54.6911 316.357 55.0447 316.357 55.4453V61H313.634ZM323.517 61.1854C322.891 61.1854 322.333 61.0767 321.843 60.8594C321.352 60.6378 320.965 60.3118 320.679 59.8814C320.398 59.4467 320.257 58.9055 320.257 58.2578C320.257 57.7124 320.357 57.2543 320.558 56.8835C320.758 56.5128 321.031 56.2145 321.376 55.9886C321.721 55.7628 322.113 55.5923 322.552 55.4773C322.995 55.3622 323.46 55.2812 323.945 55.2344C324.517 55.1747 324.977 55.1193 325.326 55.0682C325.676 55.0128 325.929 54.9318 326.087 54.8253C326.244 54.7187 326.323 54.5611 326.323 54.3523V54.3139C326.323 53.9091 326.195 53.5959 325.94 53.3743C325.688 53.1527 325.33 53.0419 324.866 53.0419C324.376 53.0419 323.986 53.1506 323.696 53.3679C323.406 53.581 323.215 53.8494 323.121 54.1733L320.602 53.9688C320.73 53.3722 320.982 52.8565 321.357 52.4219C321.732 51.983 322.215 51.6463 322.808 51.4119C323.404 51.1733 324.095 51.054 324.879 51.054C325.424 51.054 325.946 51.1179 326.445 51.2457C326.948 51.3736 327.393 51.5717 327.781 51.8402C328.173 52.1087 328.482 52.4538 328.708 52.8757C328.933 53.2933 329.046 53.794 329.046 54.3778V61H326.464V59.6385H326.387C326.23 59.9453 326.019 60.2159 325.754 60.4503C325.49 60.6804 325.173 60.8615 324.802 60.9936C324.431 61.1214 324.003 61.1854 323.517 61.1854ZM324.297 59.3061C324.698 59.3061 325.051 59.2273 325.358 59.0696C325.665 58.9077 325.906 58.6903 326.08 58.4176C326.255 58.1449 326.343 57.8359 326.343 57.4908V56.4489C326.257 56.5043 326.14 56.5554 325.991 56.6023C325.846 56.6449 325.682 56.6854 325.499 56.7237C325.316 56.7578 325.132 56.7898 324.949 56.8196C324.766 56.8452 324.6 56.8686 324.45 56.8899C324.131 56.9368 323.852 57.0114 323.613 57.1136C323.374 57.2159 323.189 57.3544 323.057 57.5291C322.925 57.6996 322.859 57.9126 322.859 58.1683C322.859 58.5391 322.993 58.8224 323.262 59.0185C323.534 59.2102 323.879 59.3061 324.297 59.3061ZM339.328 53.9815L336.835 54.1349C336.792 53.9219 336.701 53.7301 336.56 53.5597C336.42 53.3849 336.234 53.2464 336.004 53.1442C335.778 53.0376 335.508 52.9844 335.192 52.9844C334.77 52.9844 334.415 53.0739 334.125 53.2528C333.835 53.4276 333.69 53.6619 333.69 53.956C333.69 54.1903 333.784 54.3885 333.971 54.5504C334.159 54.7124 334.481 54.8423 334.937 54.9403L336.714 55.2983C337.668 55.4943 338.38 55.8097 338.849 56.2443C339.317 56.679 339.552 57.25 339.552 57.9574C339.552 58.6009 339.362 59.1655 338.983 59.6513C338.608 60.1371 338.092 60.5163 337.436 60.7891C336.784 61.0575 336.032 61.1918 335.18 61.1918C333.88 61.1918 332.844 60.9212 332.073 60.38C331.306 59.8345 330.856 59.093 330.724 58.1555L333.403 58.0149C333.483 58.4112 333.68 58.7138 333.991 58.9226C334.302 59.1271 334.7 59.2294 335.186 59.2294C335.663 59.2294 336.047 59.1378 336.336 58.9545C336.631 58.767 336.78 58.5263 336.784 58.2322C336.78 57.9851 336.675 57.7827 336.471 57.625C336.266 57.4631 335.951 57.3395 335.525 57.2543L333.824 56.9155C332.866 56.7237 332.152 56.3913 331.683 55.9183C331.219 55.4453 330.986 54.8423 330.986 54.1094C330.986 53.4787 331.157 52.9354 331.498 52.4794C331.843 52.0234 332.327 51.6719 332.949 51.4247C333.575 51.1776 334.308 51.054 335.148 51.054C336.388 51.054 337.363 51.3161 338.075 51.8402C338.791 52.3643 339.209 53.0781 339.328 53.9815ZM345.741 61.1918C344.731 61.1918 343.862 60.9872 343.133 60.5781C342.408 60.1648 341.85 59.581 341.458 58.8267C341.066 58.0682 340.87 57.1712 340.87 56.1357C340.87 55.1257 341.066 54.2393 341.458 53.4766C341.85 52.7138 342.402 52.1193 343.114 51.6932C343.83 51.267 344.669 51.054 345.632 51.054C346.28 51.054 346.883 51.1584 347.441 51.3672C348.004 51.5717 348.494 51.8807 348.911 52.294C349.333 52.7074 349.661 53.2273 349.896 53.8537C350.13 54.4759 350.247 55.2045 350.247 56.0398V56.7876H341.957V55.1001H347.684C347.684 54.7081 347.599 54.3608 347.428 54.0582C347.258 53.7557 347.021 53.5192 346.719 53.3487C346.42 53.174 346.073 53.0866 345.677 53.0866C345.263 53.0866 344.897 53.1825 344.577 53.3743C344.262 53.5618 344.015 53.8153 343.836 54.1349C343.657 54.4503 343.565 54.8018 343.561 55.1896V56.794C343.561 57.2798 343.651 57.6996 343.83 58.0533C344.013 58.407 344.271 58.6797 344.603 58.8714C344.935 59.0632 345.33 59.1591 345.786 59.1591C346.088 59.1591 346.365 59.1165 346.616 59.0312C346.868 58.946 347.083 58.8182 347.262 58.6477C347.441 58.4773 347.577 58.2685 347.671 58.0213L350.19 58.1875C350.062 58.7926 349.8 59.321 349.403 59.7727C349.011 60.2202 348.504 60.5696 347.882 60.821C347.264 61.0682 346.55 61.1918 345.741 61.1918Z" fill="white"/>
<path d="M371.169 55.1136V54.4318L376.658 51.6364V52.7273L372.448 54.7557L372.482 54.6875V54.858L372.448 54.7898L376.658 56.8182V57.9091L371.169 55.1136ZM382.301 59V50.2727H385.352C385.96 50.2727 386.461 50.3778 386.856 50.5881C387.251 50.7955 387.545 51.0753 387.738 51.4276C387.932 51.777 388.028 52.1648 388.028 52.5909C388.028 52.9659 387.961 53.2756 387.828 53.5199C387.697 53.7642 387.524 53.9574 387.308 54.0994C387.095 54.2415 386.863 54.3466 386.613 54.4148V54.5C386.881 54.517 387.149 54.6108 387.419 54.7812C387.689 54.9517 387.915 55.196 388.096 55.5142C388.278 55.8324 388.369 56.2216 388.369 56.6818C388.369 57.1193 388.27 57.5128 388.071 57.8622C387.872 58.2116 387.558 58.4886 387.129 58.6932C386.7 58.8977 386.142 59 385.454 59H382.301ZM383.358 58.0625H385.454C386.145 58.0625 386.635 57.929 386.925 57.6619C387.217 57.392 387.363 57.0653 387.363 56.6818C387.363 56.3864 387.288 56.1136 387.138 55.8636C386.987 55.6108 386.773 55.4091 386.494 55.2585C386.216 55.1051 385.886 55.0284 385.506 55.0284H383.358V58.0625ZM383.358 54.108H385.318C385.636 54.108 385.923 54.0455 386.179 53.9205C386.437 53.7955 386.642 53.6193 386.792 53.392C386.946 53.1648 387.023 52.8977 387.023 52.5909C387.023 52.2074 386.889 51.8821 386.622 51.6151C386.355 51.3452 385.932 51.2102 385.352 51.2102H383.358V54.108ZM391.895 59.1534C391.481 59.1534 391.104 59.0753 390.766 58.919C390.428 58.7599 390.16 58.5312 389.961 58.233C389.762 57.9318 389.662 57.5682 389.662 57.142C389.662 56.767 389.736 56.4631 389.884 56.2301C390.032 55.9943 390.229 55.8097 390.476 55.6761C390.724 55.5426 390.996 55.4432 391.295 55.3778C391.596 55.3097 391.898 55.2557 392.202 55.2159C392.6 55.1648 392.922 55.1264 393.17 55.1009C393.42 55.0724 393.601 55.0256 393.715 54.9602C393.831 54.8949 393.89 54.7812 393.89 54.6193V54.5852C393.89 54.1648 393.775 53.8381 393.545 53.6051C393.317 53.3722 392.972 53.2557 392.509 53.2557C392.029 53.2557 391.653 53.3608 391.38 53.571C391.107 53.7812 390.915 54.0057 390.805 54.2443L389.85 53.9034C390.02 53.5057 390.248 53.196 390.532 52.9744C390.819 52.75 391.131 52.5937 391.469 52.5057C391.81 52.4148 392.145 52.3693 392.475 52.3693C392.685 52.3693 392.927 52.3949 393.199 52.446C393.475 52.4943 393.741 52.5952 393.996 52.7486C394.255 52.902 394.469 53.1335 394.64 53.4432C394.81 53.7528 394.895 54.1676 394.895 54.6875V59H393.89V58.1136H393.839C393.77 58.2557 393.657 58.4077 393.498 58.5696C393.339 58.7315 393.127 58.8693 392.863 58.983C392.599 59.0966 392.276 59.1534 391.895 59.1534ZM392.049 58.25C392.447 58.25 392.782 58.1719 393.055 58.0156C393.33 57.8594 393.537 57.6577 393.677 57.4105C393.819 57.1634 393.89 56.9034 393.89 56.6307V55.7102C393.847 55.7614 393.753 55.8082 393.608 55.8509C393.466 55.8906 393.302 55.9261 393.114 55.9574C392.93 55.9858 392.749 56.0114 392.573 56.0341C392.4 56.054 392.259 56.071 392.151 56.0852C391.89 56.1193 391.645 56.1747 391.418 56.2514C391.194 56.3253 391.012 56.4375 390.873 56.5881C390.736 56.7358 390.668 56.9375 390.668 57.1932C390.668 57.5426 390.797 57.8068 391.056 57.9858C391.317 58.1619 391.648 58.25 392.049 58.25ZM399.39 59.1364C398.776 59.1364 398.248 58.9915 397.805 58.7017C397.362 58.4119 397.021 58.0128 396.782 57.5043C396.544 56.9957 396.424 56.4148 396.424 55.7614C396.424 55.0966 396.546 54.5099 396.791 54.0014C397.038 53.4901 397.382 53.0909 397.822 52.804C398.265 52.5142 398.782 52.3693 399.373 52.3693C399.833 52.3693 400.248 52.4545 400.617 52.625C400.987 52.7955 401.289 53.0341 401.525 53.3409C401.761 53.6477 401.907 54.0057 401.964 54.4148H400.958C400.882 54.1165 400.711 53.8523 400.447 53.6222C400.186 53.3892 399.833 53.2727 399.39 53.2727C398.998 53.2727 398.654 53.375 398.359 53.5795C398.066 53.7812 397.838 54.0668 397.673 54.4361C397.511 54.8026 397.43 55.233 397.43 55.7273C397.43 56.233 397.509 56.6733 397.669 57.0483C397.83 57.4233 398.058 57.7145 398.35 57.9219C398.646 58.1293 398.992 58.233 399.39 58.233C399.651 58.233 399.889 58.1875 400.102 58.0966C400.315 58.0057 400.495 57.875 400.643 57.7045C400.791 57.5341 400.896 57.3295 400.958 57.0909H401.964C401.907 57.4773 401.767 57.8253 401.542 58.1349C401.32 58.4418 401.026 58.6861 400.66 58.8679C400.296 59.0469 399.873 59.1364 399.39 59.1364ZM404.372 56.6136L404.355 55.3693H404.559L407.423 52.4545H408.667L405.616 55.5398H405.531L404.372 56.6136ZM403.434 59V50.2727H404.44V59H403.434ZM407.593 59L405.036 55.7614L405.752 55.0625L408.872 59H407.593Z" fill="#1677FF"/>
<rect x="115" y="123" width="0.999998" height="50" transform="rotate(-90 115 123)" fill="#1677FF"/>
<circle cx="187.465" cy="121.465" r="14.465" transform="rotate(-90 187.465 121.465)" fill="#1677FF"/>
<path d="M184.137 125.935V124.494L187.502 121.378C187.788 121.101 188.028 120.852 188.222 120.63C188.419 120.409 188.569 120.192 188.67 119.979C188.772 119.764 188.822 119.532 188.822 119.282C188.822 119.005 188.759 118.767 188.633 118.567C188.507 118.364 188.335 118.208 188.116 118.1C187.898 117.99 187.65 117.934 187.373 117.934C187.084 117.934 186.831 117.993 186.616 118.11C186.4 118.227 186.234 118.394 186.117 118.613C186 118.831 185.942 119.091 185.942 119.393H184.044C184.044 118.774 184.184 118.237 184.464 117.782C184.745 117.326 185.137 116.974 185.642 116.725C186.146 116.475 186.728 116.351 187.387 116.351C188.064 116.351 188.653 116.471 189.155 116.711C189.66 116.948 190.052 117.277 190.332 117.699C190.612 118.12 190.752 118.604 190.752 119.148C190.752 119.505 190.681 119.858 190.54 120.206C190.401 120.553 190.154 120.94 189.797 121.364C189.44 121.786 188.936 122.292 188.287 122.883L186.907 124.236V124.3H190.877V125.935H184.137Z" fill="#1A1A23"/>
<circle cx="282.465" cy="121.465" r="14.465" transform="rotate(-90 282.465 121.465)" fill="#EDEDED"/>
<path d="M282.441 126.064C281.752 126.064 281.138 125.945 280.599 125.708C280.063 125.468 279.64 125.139 279.329 124.72C279.022 124.299 278.863 123.813 278.854 123.262H280.867C280.879 123.492 280.954 123.696 281.093 123.871C281.235 124.043 281.422 124.177 281.656 124.273C281.89 124.368 282.153 124.416 282.446 124.416C282.75 124.416 283.02 124.362 283.253 124.254C283.487 124.146 283.67 123.997 283.803 123.806C283.935 123.616 284.001 123.396 284.001 123.146C284.001 122.894 283.931 122.671 283.789 122.477C283.65 122.28 283.45 122.126 283.189 122.015C282.93 121.904 282.623 121.849 282.266 121.849H281.384V120.381H282.266C282.567 120.381 282.833 120.329 283.064 120.224C283.298 120.119 283.48 119.975 283.609 119.79C283.738 119.602 283.803 119.384 283.803 119.134C283.803 118.898 283.746 118.69 283.632 118.511C283.521 118.33 283.364 118.188 283.161 118.087C282.961 117.985 282.727 117.934 282.459 117.934C282.189 117.934 281.941 117.983 281.716 118.082C281.492 118.177 281.311 118.314 281.176 118.493C281.041 118.671 280.968 118.881 280.959 119.121H279.043C279.052 118.576 279.208 118.096 279.509 117.68C279.811 117.265 280.217 116.94 280.728 116.706C281.242 116.469 281.822 116.351 282.469 116.351C283.121 116.351 283.692 116.469 284.181 116.706C284.671 116.943 285.051 117.263 285.322 117.666C285.596 118.067 285.731 118.516 285.728 119.014C285.731 119.544 285.566 119.985 285.234 120.339C284.905 120.693 284.475 120.918 283.946 121.013V121.087C284.641 121.177 285.171 121.418 285.534 121.812C285.9 122.203 286.082 122.692 286.079 123.28C286.082 123.819 285.926 124.297 285.612 124.716C285.302 125.134 284.872 125.464 284.324 125.704C283.777 125.944 283.149 126.064 282.441 126.064Z" fill="#1A1A23"/>
<circle cx="377.465" cy="121.465" r="14.465" transform="rotate(-90 377.465 121.465)" fill="#EDEDED"/>
<path d="M373.973 123.402V121.949L377.617 116.209H378.87V118.22H378.128L375.831 121.855V121.923H381.009V123.402H373.973ZM378.162 124.936V122.959L378.197 122.315V116.209H379.927V124.936H378.162Z" fill="#1A1A23"/>
<circle cx="92.5354" cy="122.535" r="14.4651" transform="rotate(-90 92.5354 122.535)" fill="#E4F6FF"/>
<path d="M88.3422 150.06C88.2711 149.83 88.1731 149.624 88.0481 149.442C87.926 149.257 87.7782 149.099 87.6049 148.969C87.4345 148.838 87.2385 148.74 87.0169 148.675C86.7953 148.607 86.5538 148.573 86.2924 148.573C85.8237 148.573 85.4061 148.69 85.0396 148.926C84.6731 149.162 84.3848 149.509 84.1745 149.966C83.9672 150.421 83.8635 150.974 83.8635 151.628C83.8635 152.287 83.9672 152.845 84.1745 153.303C84.3819 153.76 84.6703 154.108 85.0396 154.347C85.4089 154.582 85.8379 154.7 86.3265 154.7C86.7697 154.7 87.1532 154.615 87.4771 154.445C87.8038 154.274 88.0552 154.033 88.2314 153.72C88.4075 153.405 88.4956 153.036 88.4956 152.612L88.8535 152.668H86.4842V151.432H90.0254V152.48C90.0254 153.227 89.8663 153.874 89.5481 154.419C89.2299 154.965 88.7924 155.385 88.2356 155.68C87.6788 155.973 87.0396 156.119 86.318 156.119C85.514 156.119 84.8081 155.939 84.2001 155.578C83.595 155.215 83.122 154.699 82.7811 154.031C82.443 153.361 82.274 152.565 82.274 151.645C82.274 150.94 82.3734 150.311 82.5723 149.757C82.774 149.203 83.0552 148.733 83.416 148.347C83.7768 147.957 84.2001 147.662 84.6859 147.46C85.1717 147.256 85.7001 147.153 86.2711 147.153C86.7541 147.153 87.2044 147.224 87.622 147.367C88.0396 147.506 88.4103 147.705 88.7342 147.963C89.0609 148.222 89.3294 148.528 89.5396 148.884C89.7498 149.239 89.8876 149.631 89.9529 150.06H88.3422ZM94.3837 156.128C93.7275 156.128 93.1607 155.992 92.6834 155.719C92.209 155.443 91.8439 155.054 91.5882 154.551C91.3326 154.046 91.2047 153.45 91.2047 152.766C91.2047 152.092 91.3326 151.501 91.5882 150.993C91.8468 150.482 92.2076 150.084 92.6706 149.8C93.1337 149.513 93.6777 149.369 94.3027 149.369C94.7061 149.369 95.0868 149.435 95.4448 149.565C95.8056 149.693 96.1238 149.892 96.3993 150.162C96.6777 150.432 96.8965 150.776 97.0556 151.193C97.2147 151.608 97.2942 152.102 97.2942 152.676V153.149H91.9292V152.109H95.8155C95.8127 151.814 95.7488 151.551 95.6238 151.321C95.4988 151.088 95.324 150.905 95.0996 150.771C94.878 150.638 94.6195 150.571 94.324 150.571C94.0087 150.571 93.7317 150.648 93.4931 150.801C93.2544 150.952 93.0684 151.151 92.9348 151.398C92.8042 151.642 92.7374 151.911 92.7346 152.203V153.111C92.7346 153.492 92.8042 153.818 92.9434 154.091C93.0826 154.361 93.2772 154.568 93.5272 154.713C93.7772 154.855 94.0698 154.926 94.405 154.926C94.6294 154.926 94.8326 154.895 95.0144 154.832C95.1962 154.767 95.3539 154.672 95.4874 154.547C95.6209 154.422 95.7218 154.267 95.79 154.082L97.2303 154.244C97.1394 154.625 96.9661 154.957 96.7104 155.242C96.4576 155.523 96.1337 155.742 95.7388 155.898C95.3439 156.051 94.8922 156.128 94.3837 156.128ZM101.868 149.455V150.648H98.1049V149.455H101.868ZM99.0339 147.886H100.577V154.031C100.577 154.239 100.608 154.398 100.67 154.509C100.736 154.617 100.821 154.69 100.926 154.73C101.031 154.77 101.148 154.79 101.275 154.79C101.372 154.79 101.46 154.783 101.54 154.769C101.622 154.754 101.684 154.742 101.727 154.73L101.987 155.936C101.905 155.965 101.787 155.996 101.633 156.03C101.483 156.064 101.298 156.084 101.079 156.09C100.693 156.101 100.345 156.043 100.035 155.915C99.7257 155.784 99.4799 155.582 99.2981 155.31C99.1191 155.037 99.0311 154.696 99.0339 154.287V147.886ZM73.9963 164.672C73.9565 164.3 73.7889 164.01 73.4934 163.803C73.2008 163.595 72.8201 163.492 72.3514 163.492C72.0218 163.492 71.7392 163.541 71.5034 163.641C71.2676 163.74 71.0872 163.875 70.9622 164.046C70.8372 164.216 70.7733 164.411 70.7704 164.629C70.7704 164.811 70.8116 164.969 70.894 165.102C70.9792 165.236 71.0943 165.349 71.2392 165.443C71.3841 165.534 71.5446 165.611 71.7207 165.673C71.8968 165.736 72.0744 165.788 72.2534 165.831L73.0716 166.036C73.4011 166.112 73.7179 166.216 74.0218 166.347C74.3287 166.477 74.6028 166.642 74.8443 166.841C75.0886 167.04 75.2818 167.28 75.4238 167.561C75.5659 167.842 75.6369 168.172 75.6369 168.55C75.6369 169.061 75.5062 169.511 75.2449 169.901C74.9835 170.287 74.6056 170.59 74.1113 170.808C73.6199 171.024 73.0247 171.132 72.3258 171.132C71.6468 171.132 71.0574 171.027 70.5574 170.817C70.0602 170.607 69.671 170.3 69.3897 169.896C69.1113 169.493 68.9608 169.001 68.938 168.422H70.4934C70.5162 168.726 70.6099 168.979 70.7747 169.18C70.9395 169.382 71.1539 169.533 71.4181 169.632C71.6852 169.732 71.9835 169.781 72.313 169.781C72.6568 169.781 72.9579 169.73 73.2164 169.628C73.4778 169.523 73.6824 169.378 73.8301 169.193C73.9778 169.006 74.0531 168.787 74.0559 168.537C74.0531 168.31 73.9863 168.122 73.8556 167.974C73.725 167.824 73.5417 167.699 73.3059 167.599C73.073 167.497 72.8002 167.406 72.4877 167.327L71.4949 167.071C70.7761 166.886 70.2079 166.607 69.7903 166.232C69.3755 165.854 69.1681 165.352 69.1681 164.727C69.1681 164.213 69.3074 163.763 69.5858 163.376C69.867 162.99 70.2491 162.69 70.7321 162.477C71.215 162.261 71.7619 162.153 72.3727 162.153C72.992 162.153 73.5346 162.261 74.0005 162.477C74.4693 162.69 74.8372 162.987 75.1042 163.368C75.3713 163.746 75.5091 164.18 75.5176 164.672H73.9963ZM80.2466 164.455V165.648H76.4838V164.455H80.2466ZM77.4128 162.886H78.9554V169.031C78.9554 169.239 78.9867 169.398 79.0492 169.509C79.1145 169.617 79.1998 169.69 79.3049 169.73C79.41 169.77 79.5265 169.79 79.6543 169.79C79.7509 169.79 79.839 169.783 79.9185 169.769C80.0009 169.754 80.0634 169.742 80.106 169.73L80.3659 170.936C80.2836 170.965 80.1657 170.996 80.0123 171.03C79.8617 171.064 79.677 171.084 79.4583 171.09C79.0719 171.101 78.7239 171.043 78.4142 170.915C78.1046 170.784 77.8588 170.582 77.677 170.31C77.498 170.037 77.41 169.696 77.4128 169.287V162.886ZM83.4203 171.132C83.0055 171.132 82.6319 171.058 82.2995 170.911C81.97 170.76 81.7086 170.538 81.5154 170.246C81.3251 169.953 81.2299 169.592 81.2299 169.163C81.2299 168.794 81.2981 168.489 81.4345 168.247C81.5708 168.006 81.7569 167.813 81.9927 167.668C82.2285 167.523 82.4941 167.413 82.7896 167.34C83.0879 167.263 83.3961 167.207 83.7143 167.173C84.0978 167.134 84.4089 167.098 84.6475 167.067C84.8862 167.033 85.0595 166.982 85.1674 166.913C85.2782 166.842 85.3336 166.733 85.3336 166.585V166.56C85.3336 166.239 85.2385 165.99 85.0481 165.814C84.8578 165.638 84.5836 165.55 84.2257 165.55C83.8478 165.55 83.5481 165.632 83.3265 165.797C83.1078 165.962 82.96 166.156 82.8833 166.381L81.443 166.176C81.5566 165.778 81.7441 165.446 82.0055 165.179C82.2669 164.909 82.5865 164.707 82.9643 164.574C83.3422 164.438 83.7598 164.369 84.2172 164.369C84.5325 164.369 84.8464 164.406 85.1589 164.48C85.4714 164.554 85.7569 164.676 86.0154 164.847C86.274 165.014 86.4814 165.243 86.6376 165.533C86.7967 165.823 86.8762 166.185 86.8762 166.619V171H85.3933V170.101H85.3422C85.2484 170.283 85.1163 170.453 84.9458 170.612C84.7782 170.769 84.5666 170.895 84.3109 170.992C84.0581 171.085 83.7612 171.132 83.4203 171.132ZM83.8208 169.999C84.1305 169.999 84.399 169.938 84.6262 169.815C84.8535 169.69 85.0282 169.526 85.1504 169.321C85.2754 169.117 85.3379 168.894 85.3379 168.652V167.881C85.2896 167.921 85.2072 167.957 85.0907 167.992C84.9771 168.026 84.8493 168.055 84.7072 168.081C84.5652 168.107 84.4245 168.129 84.2853 168.149C84.1461 168.169 84.0254 168.186 83.9231 168.2C83.693 168.232 83.487 168.283 83.3052 168.354C83.1234 168.425 82.9799 168.524 82.8748 168.652C82.7697 168.777 82.7172 168.939 82.7172 169.138C82.7172 169.422 82.8208 169.636 83.0282 169.781C83.2356 169.926 83.4998 169.999 83.8208 169.999ZM88.4274 171V164.455H89.9231V165.546H89.9913C90.1106 165.168 90.3152 164.876 90.6049 164.672C90.8975 164.465 91.2314 164.361 91.6064 164.361C91.6916 164.361 91.7868 164.365 91.8919 164.374C91.9998 164.379 92.0893 164.389 92.1603 164.403V165.823C92.095 165.8 91.9913 165.78 91.8493 165.763C91.71 165.743 91.5751 165.733 91.4444 165.733C91.1632 165.733 90.9103 165.794 90.6859 165.916C90.4643 166.036 90.2896 166.202 90.1618 166.415C90.0339 166.628 89.97 166.874 89.97 167.152V171H88.4274ZM96.8052 164.455V165.648H93.0424V164.455H96.8052ZM93.9714 162.886H95.514V169.031C95.514 169.239 95.5453 169.398 95.6078 169.509C95.6731 169.617 95.7583 169.69 95.8635 169.73C95.9686 169.77 96.085 169.79 96.2129 169.79C96.3095 169.79 96.3975 169.783 96.4771 169.769C96.5595 169.754 96.622 169.742 96.6646 169.73L96.9245 170.936C96.8422 170.965 96.7243 170.996 96.5708 171.03C96.4203 171.064 96.2356 171.084 96.0169 171.09C95.6305 171.101 95.2825 171.043 94.9728 170.915C94.6632 170.784 94.4174 170.582 94.2356 170.31C94.0566 170.037 93.9686 169.696 93.9714 169.287V162.886ZM100.923 171.128C100.267 171.128 99.6998 170.992 99.2225 170.719C98.748 170.443 98.383 170.054 98.1273 169.551C97.8716 169.046 97.7438 168.45 97.7438 167.766C97.7438 167.092 97.8716 166.501 98.1273 165.993C98.3858 165.482 98.7466 165.084 99.2097 164.8C99.6728 164.513 100.217 164.369 100.842 164.369C101.245 164.369 101.626 164.435 101.984 164.565C102.345 164.693 102.663 164.892 102.938 165.162C103.217 165.432 103.436 165.776 103.595 166.193C103.754 166.608 103.833 167.102 103.833 167.676V168.149H98.4682V167.109H102.355C102.352 166.814 102.288 166.551 102.163 166.321C102.038 166.088 101.863 165.905 101.639 165.771C101.417 165.638 101.159 165.571 100.863 165.571C100.548 165.571 100.271 165.648 100.032 165.801C99.7935 165.952 99.6074 166.151 99.4739 166.398C99.3432 166.642 99.2765 166.911 99.2736 167.203V168.111C99.2736 168.492 99.3432 168.818 99.4824 169.091C99.6216 169.361 99.8162 169.568 100.066 169.713C100.316 169.855 100.609 169.926 100.944 169.926C101.169 169.926 101.372 169.895 101.553 169.832C101.735 169.767 101.893 169.672 102.026 169.547C102.16 169.422 102.261 169.267 102.329 169.082L103.769 169.244C103.678 169.625 103.505 169.957 103.249 170.242C102.997 170.523 102.673 170.742 102.278 170.898C101.883 171.051 101.431 171.128 100.923 171.128ZM107.567 171.115C107.053 171.115 106.593 170.983 106.187 170.719C105.78 170.455 105.459 170.071 105.224 169.568C104.988 169.065 104.87 168.455 104.87 167.736C104.87 167.009 104.989 166.395 105.228 165.895C105.469 165.392 105.795 165.013 106.204 164.757C106.613 164.499 107.069 164.369 107.572 164.369C107.955 164.369 108.27 164.435 108.518 164.565C108.765 164.693 108.961 164.848 109.106 165.03C109.251 165.209 109.363 165.378 109.442 165.537H109.506V162.273H111.053V171H109.536V169.969H109.442C109.363 170.128 109.248 170.297 109.097 170.476C108.947 170.652 108.748 170.803 108.501 170.928C108.253 171.053 107.942 171.115 107.567 171.115ZM107.998 169.849C108.324 169.849 108.603 169.761 108.833 169.585C109.063 169.406 109.238 169.158 109.357 168.84C109.476 168.521 109.536 168.151 109.536 167.727C109.536 167.304 109.476 166.936 109.357 166.624C109.241 166.311 109.067 166.068 108.837 165.895C108.61 165.722 108.33 165.635 107.998 165.635C107.654 165.635 107.367 165.724 107.137 165.903C106.907 166.082 106.733 166.33 106.617 166.645C106.501 166.96 106.442 167.321 106.442 167.727C106.442 168.136 106.501 168.501 106.617 168.823C106.736 169.141 106.911 169.392 107.141 169.577C107.374 169.759 107.66 169.849 107.998 169.849ZM114.585 162.273L114.444 168.435H113.072L112.936 162.273H114.585ZM113.758 171.094C113.499 171.094 113.278 171.003 113.093 170.821C112.911 170.639 112.82 170.418 112.82 170.156C112.82 169.901 112.911 169.682 113.093 169.5C113.278 169.318 113.499 169.227 113.758 169.227C114.011 169.227 114.23 169.318 114.414 169.5C114.602 169.682 114.695 169.901 114.695 170.156C114.695 170.33 114.651 170.487 114.563 170.629C114.478 170.771 114.365 170.885 114.222 170.97C114.083 171.053 113.928 171.094 113.758 171.094Z" fill="#1677FF"/>
<path d="M170.176 147.273V156H168.595V147.273H170.176ZM171.82 156V149.455H173.294V150.567H173.371C173.507 150.192 173.733 149.899 174.049 149.689C174.364 149.476 174.74 149.369 175.178 149.369C175.621 149.369 175.995 149.477 176.299 149.693C176.605 149.906 176.821 150.198 176.946 150.567H177.015C177.159 150.203 177.404 149.913 177.748 149.698C178.094 149.479 178.505 149.369 178.979 149.369C179.581 149.369 180.073 149.56 180.453 149.94C180.834 150.321 181.025 150.876 181.025 151.607V156H179.478V151.845C179.478 151.439 179.37 151.142 179.154 150.955C178.938 150.764 178.674 150.669 178.361 150.669C177.989 150.669 177.698 150.786 177.488 151.019C177.28 151.249 177.176 151.548 177.176 151.918V156H175.664V151.781C175.664 151.443 175.561 151.173 175.357 150.972C175.155 150.77 174.891 150.669 174.564 150.669C174.343 150.669 174.141 150.726 173.959 150.84C173.777 150.95 173.632 151.108 173.525 151.313C173.417 151.514 173.363 151.75 173.363 152.02V156H171.82ZM182.589 158.455V149.455H184.107V150.537H184.196C184.276 150.378 184.388 150.209 184.533 150.03C184.678 149.848 184.874 149.693 185.121 149.565C185.368 149.435 185.683 149.369 186.067 149.369C186.572 149.369 187.028 149.499 187.435 149.757C187.844 150.013 188.168 150.392 188.406 150.895C188.648 151.395 188.768 152.009 188.768 152.736C188.768 153.455 188.651 154.065 188.415 154.568C188.179 155.071 187.858 155.455 187.452 155.719C187.045 155.983 186.585 156.115 186.071 156.115C185.696 156.115 185.385 156.053 185.138 155.928C184.891 155.803 184.692 155.652 184.541 155.476C184.393 155.297 184.278 155.128 184.196 154.969H184.132V158.455H182.589ZM184.102 152.727C184.102 153.151 184.162 153.521 184.281 153.84C184.403 154.158 184.578 154.406 184.805 154.585C185.036 154.761 185.314 154.849 185.641 154.849C185.982 154.849 186.267 154.759 186.497 154.577C186.727 154.392 186.901 154.141 187.017 153.823C187.136 153.501 187.196 153.136 187.196 152.727C187.196 152.321 187.138 151.96 187.021 151.645C186.905 151.33 186.732 151.082 186.501 150.903C186.271 150.724 185.984 150.635 185.641 150.635C185.311 150.635 185.031 150.722 184.801 150.895C184.571 151.068 184.396 151.311 184.277 151.624C184.161 151.936 184.102 152.304 184.102 152.727ZM192.945 156.128C192.305 156.128 191.751 155.987 191.283 155.706C190.814 155.425 190.45 155.031 190.192 154.526C189.936 154.02 189.808 153.429 189.808 152.753C189.808 152.077 189.936 151.484 190.192 150.976C190.45 150.467 190.814 150.073 191.283 149.791C191.751 149.51 192.305 149.369 192.945 149.369C193.584 149.369 194.138 149.51 194.607 149.791C195.075 150.073 195.438 150.467 195.693 150.976C195.952 151.484 196.081 152.077 196.081 152.753C196.081 153.429 195.952 154.02 195.693 154.526C195.438 155.031 195.075 155.425 194.607 155.706C194.138 155.987 193.584 156.128 192.945 156.128ZM192.953 154.892C193.3 154.892 193.589 154.797 193.822 154.607C194.055 154.413 194.229 154.155 194.342 153.831C194.459 153.507 194.517 153.146 194.517 152.749C194.517 152.348 194.459 151.986 194.342 151.662C194.229 151.335 194.055 151.075 193.822 150.882C193.589 150.689 193.3 150.592 192.953 150.592C192.598 150.592 192.303 150.689 192.067 150.882C191.834 151.075 191.659 151.335 191.543 151.662C191.429 151.986 191.372 152.348 191.372 152.749C191.372 153.146 191.429 153.507 191.543 153.831C191.659 154.155 191.834 154.413 192.067 154.607C192.303 154.797 192.598 154.892 192.953 154.892ZM197.39 156V149.455H198.886V150.546H198.954C199.074 150.168 199.278 149.876 199.568 149.672C199.86 149.465 200.194 149.361 200.569 149.361C200.654 149.361 200.75 149.365 200.855 149.374C200.963 149.379 201.052 149.389 201.123 149.403V150.823C201.058 150.8 200.954 150.78 200.812 150.763C200.673 150.743 200.538 150.733 200.407 150.733C200.126 150.733 199.873 150.794 199.649 150.916C199.427 151.036 199.252 151.202 199.125 151.415C198.997 151.628 198.933 151.874 198.933 152.152V156H197.39ZM205.768 149.455V150.648H202.005V149.455H205.768ZM202.934 147.886H204.477V154.031C204.477 154.239 204.508 154.398 204.571 154.509C204.636 154.617 204.721 154.69 204.826 154.73C204.931 154.77 205.048 154.79 205.176 154.79C205.272 154.79 205.36 154.783 205.44 154.769C205.522 154.754 205.585 154.742 205.627 154.73L205.887 155.936C205.805 155.965 205.687 155.996 205.534 156.03C205.383 156.064 205.199 156.084 204.98 156.09C204.593 156.101 204.245 156.043 203.936 155.915C203.626 155.784 203.38 155.582 203.199 155.31C203.02 155.037 202.931 154.696 202.934 154.287V147.886ZM171.58 171L169.117 162.273H170.817L172.39 168.686H172.471L174.15 162.273H175.697L177.38 168.69H177.457L179.029 162.273H180.729L178.266 171H176.707L174.96 164.876H174.891L173.14 171H171.58ZM182.973 171.132C182.558 171.132 182.185 171.058 181.852 170.911C181.523 170.76 181.261 170.538 181.068 170.246C180.878 169.953 180.783 169.592 180.783 169.163C180.783 168.794 180.851 168.489 180.987 168.247C181.124 168.006 181.31 167.813 181.545 167.668C181.781 167.523 182.047 167.413 182.342 167.34C182.641 167.263 182.949 167.207 183.267 167.173C183.651 167.134 183.962 167.098 184.2 167.067C184.439 167.033 184.612 166.982 184.72 166.913C184.831 166.842 184.886 166.733 184.886 166.585V166.56C184.886 166.239 184.791 165.99 184.601 165.814C184.411 165.638 184.136 165.55 183.778 165.55C183.401 165.55 183.101 165.632 182.879 165.797C182.661 165.962 182.513 166.156 182.436 166.381L180.996 166.176C181.109 165.778 181.297 165.446 181.558 165.179C181.82 164.909 182.139 164.707 182.517 164.574C182.895 164.438 183.313 164.369 183.77 164.369C184.085 164.369 184.399 164.406 184.712 164.48C185.024 164.554 185.31 164.676 185.568 164.847C185.827 165.014 186.034 165.243 186.19 165.533C186.349 165.823 186.429 166.185 186.429 166.619V171H184.946V170.101H184.895C184.801 170.283 184.669 170.453 184.499 170.612C184.331 170.769 184.119 170.895 183.864 170.992C183.611 171.085 183.314 171.132 182.973 171.132ZM183.374 169.999C183.683 169.999 183.952 169.938 184.179 169.815C184.406 169.69 184.581 169.526 184.703 169.321C184.828 169.117 184.891 168.894 184.891 168.652V167.881C184.842 167.921 184.76 167.957 184.643 167.992C184.53 168.026 184.402 168.055 184.26 168.081C184.118 168.107 183.977 168.129 183.838 168.149C183.699 168.169 183.578 168.186 183.476 168.2C183.246 168.232 183.04 168.283 182.858 168.354C182.676 168.425 182.533 168.524 182.428 168.652C182.322 168.777 182.27 168.939 182.27 169.138C182.27 169.422 182.374 169.636 182.581 169.781C182.788 169.926 183.053 169.999 183.374 169.999ZM189.523 162.273V171H187.98V162.273H189.523ZM192.652 162.273V171H191.109V162.273H192.652ZM197.136 171.128C196.479 171.128 195.913 170.992 195.435 170.719C194.961 170.443 194.596 170.054 194.34 169.551C194.085 169.046 193.957 168.45 193.957 167.766C193.957 167.092 194.085 166.501 194.34 165.993C194.599 165.482 194.96 165.084 195.423 164.8C195.886 164.513 196.43 164.369 197.055 164.369C197.458 164.369 197.839 164.435 198.197 164.565C198.558 164.693 198.876 164.892 199.151 165.162C199.43 165.432 199.648 165.776 199.808 166.193C199.967 166.608 200.046 167.102 200.046 167.676V168.149H194.681V167.109H198.567C198.565 166.814 198.501 166.551 198.376 166.321C198.251 166.088 198.076 165.905 197.852 165.771C197.63 165.638 197.371 165.571 197.076 165.571C196.761 165.571 196.484 165.648 196.245 165.801C196.006 165.952 195.82 166.151 195.687 166.398C195.556 166.642 195.489 166.911 195.487 167.203V168.111C195.487 168.492 195.556 168.818 195.695 169.091C195.835 169.361 196.029 169.568 196.279 169.713C196.529 169.855 196.822 169.926 197.157 169.926C197.381 169.926 197.585 169.895 197.766 169.832C197.948 169.767 198.106 169.672 198.239 169.547C198.373 169.422 198.474 169.267 198.542 169.082L199.982 169.244C199.891 169.625 199.718 169.957 199.462 170.242C199.21 170.523 198.886 170.742 198.491 170.898C198.096 171.051 197.644 171.128 197.136 171.128ZM204.62 164.455V165.648H200.857V164.455H204.62ZM201.786 162.886H203.328V169.031C203.328 169.239 203.36 169.398 203.422 169.509C203.488 169.617 203.573 169.69 203.678 169.73C203.783 169.77 203.9 169.79 204.027 169.79C204.124 169.79 204.212 169.783 204.292 169.769C204.374 169.754 204.436 169.742 204.479 169.73L204.739 170.936C204.657 170.965 204.539 170.996 204.385 171.03C204.235 171.064 204.05 171.084 203.831 171.09C203.445 171.101 203.097 171.043 202.787 170.915C202.478 170.784 202.232 170.582 202.05 170.31C201.871 170.037 201.783 169.696 201.786 169.287V162.886Z" fill="#1677FF"/>
<path d="M261.193 156V147.273H264.534C265.164 147.273 265.689 147.372 266.106 147.571C266.527 147.767 266.841 148.036 267.048 148.376C267.258 148.717 267.363 149.104 267.363 149.536C267.363 149.891 267.295 150.195 267.159 150.448C267.022 150.698 266.839 150.901 266.609 151.057C266.379 151.213 266.122 151.325 265.838 151.394V151.479C266.147 151.496 266.444 151.591 266.728 151.764C267.015 151.935 267.25 152.176 267.431 152.489C267.613 152.801 267.704 153.179 267.704 153.622C267.704 154.074 267.595 154.48 267.376 154.841C267.157 155.199 266.828 155.482 266.387 155.689C265.947 155.896 265.393 156 264.725 156H261.193ZM262.774 154.679H264.474C265.048 154.679 265.461 154.57 265.714 154.351C265.97 154.129 266.098 153.845 266.098 153.499C266.098 153.24 266.034 153.007 265.906 152.8C265.778 152.59 265.596 152.425 265.36 152.305C265.125 152.183 264.843 152.122 264.517 152.122H262.774V154.679ZM262.774 150.984H264.338C264.61 150.984 264.856 150.935 265.075 150.835C265.294 150.733 265.466 150.59 265.591 150.405C265.718 150.217 265.782 149.996 265.782 149.74C265.782 149.402 265.663 149.124 265.424 148.905C265.189 148.686 264.838 148.577 264.372 148.577H262.774V150.984ZM270.895 156.132C270.48 156.132 270.107 156.058 269.774 155.911C269.445 155.76 269.183 155.538 268.99 155.246C268.8 154.953 268.705 154.592 268.705 154.163C268.705 153.794 268.773 153.489 268.909 153.247C269.045 153.006 269.232 152.813 269.467 152.668C269.703 152.523 269.969 152.413 270.264 152.34C270.563 152.263 270.871 152.207 271.189 152.173C271.572 152.134 271.884 152.098 272.122 152.067C272.361 152.033 272.534 151.982 272.642 151.913C272.753 151.842 272.808 151.733 272.808 151.585V151.56C272.808 151.239 272.713 150.99 272.523 150.814C272.332 150.638 272.058 150.55 271.7 150.55C271.322 150.55 271.023 150.632 270.801 150.797C270.582 150.962 270.435 151.156 270.358 151.381L268.918 151.176C269.031 150.778 269.219 150.446 269.48 150.179C269.741 149.909 270.061 149.707 270.439 149.574C270.817 149.438 271.234 149.369 271.692 149.369C272.007 149.369 272.321 149.406 272.634 149.48C272.946 149.554 273.232 149.676 273.49 149.847C273.749 150.014 273.956 150.243 274.112 150.533C274.271 150.823 274.351 151.185 274.351 151.619V156H272.868V155.101H272.817C272.723 155.283 272.591 155.453 272.42 155.612C272.253 155.769 272.041 155.895 271.786 155.992C271.533 156.085 271.236 156.132 270.895 156.132ZM271.295 154.999C271.605 154.999 271.874 154.938 272.101 154.815C272.328 154.69 272.503 154.526 272.625 154.321C272.75 154.117 272.812 153.894 272.812 153.652V152.881C272.764 152.921 272.682 152.957 272.565 152.992C272.452 153.026 272.324 153.055 272.182 153.081C272.04 153.107 271.899 153.129 271.76 153.149C271.621 153.169 271.5 153.186 271.398 153.2C271.168 153.232 270.962 153.283 270.78 153.354C270.598 153.425 270.455 153.524 270.349 153.652C270.244 153.777 270.192 153.939 270.192 154.138C270.192 154.422 270.295 154.636 270.503 154.781C270.71 154.926 270.974 154.999 271.295 154.999ZM278.757 156.128C278.104 156.128 277.543 155.984 277.074 155.698C276.608 155.411 276.249 155.014 275.996 154.509C275.746 154 275.621 153.415 275.621 152.753C275.621 152.088 275.749 151.501 276.004 150.993C276.26 150.482 276.621 150.084 277.087 149.8C277.555 149.513 278.109 149.369 278.749 149.369C279.28 149.369 279.75 149.467 280.159 149.663C280.571 149.857 280.899 150.131 281.143 150.486C281.388 150.838 281.527 151.25 281.561 151.722H280.087C280.027 151.406 279.885 151.144 279.661 150.933C279.439 150.72 279.142 150.614 278.77 150.614C278.455 150.614 278.178 150.699 277.939 150.869C277.7 151.037 277.514 151.278 277.381 151.594C277.25 151.909 277.185 152.287 277.185 152.727C277.185 153.173 277.25 153.557 277.381 153.878C277.511 154.196 277.695 154.442 277.93 154.615C278.169 154.786 278.449 154.871 278.77 154.871C278.997 154.871 279.2 154.828 279.379 154.743C279.561 154.655 279.713 154.528 279.835 154.364C279.957 154.199 280.041 153.999 280.087 153.763H281.561C281.524 154.226 281.388 154.636 281.152 154.994C280.916 155.349 280.595 155.628 280.189 155.83C279.783 156.028 279.305 156.128 278.757 156.128ZM284.234 153.946L284.23 152.084H284.477L286.829 149.455H288.632L285.738 152.676H285.419L284.234 153.946ZM282.828 156V147.273H284.37V156H282.828ZM286.936 156L284.805 153.021L285.845 151.935L288.781 156H286.936ZM293.832 153.247V149.455H295.374V156H293.879V154.837H293.81C293.663 155.203 293.42 155.503 293.082 155.736C292.746 155.969 292.333 156.085 291.842 156.085C291.413 156.085 291.033 155.99 290.704 155.8C290.377 155.607 290.121 155.327 289.937 154.96C289.752 154.591 289.66 154.145 289.66 153.622V149.455H291.202V153.384C291.202 153.798 291.316 154.128 291.543 154.372C291.771 154.617 292.069 154.739 292.438 154.739C292.665 154.739 292.886 154.683 293.099 154.573C293.312 154.462 293.487 154.297 293.623 154.078C293.762 153.857 293.832 153.58 293.832 153.247ZM296.961 158.455V149.455H298.478V150.537H298.567C298.647 150.378 298.759 150.209 298.904 150.03C299.049 149.848 299.245 149.693 299.492 149.565C299.739 149.435 300.054 149.369 300.438 149.369C300.944 149.369 301.4 149.499 301.806 149.757C302.215 150.013 302.539 150.392 302.777 150.895C303.019 151.395 303.14 152.009 303.14 152.736C303.14 153.455 303.022 154.065 302.786 154.568C302.55 155.071 302.229 155.455 301.823 155.719C301.417 155.983 300.956 156.115 300.442 156.115C300.067 156.115 299.756 156.053 299.509 155.928C299.262 155.803 299.063 155.652 298.912 155.476C298.765 155.297 298.65 155.128 298.567 154.969H298.503V158.455H296.961ZM298.473 152.727C298.473 153.151 298.533 153.521 298.652 153.84C298.775 154.158 298.949 154.406 299.176 154.585C299.407 154.761 299.685 154.849 300.012 154.849C300.353 154.849 300.638 154.759 300.868 154.577C301.098 154.392 301.272 154.141 301.388 153.823C301.507 153.501 301.567 153.136 301.567 152.727C301.567 152.321 301.509 151.96 301.392 151.645C301.276 151.33 301.103 151.082 300.873 150.903C300.642 150.724 300.355 150.635 300.012 150.635C299.682 150.635 299.402 150.722 299.172 150.895C298.942 151.068 298.767 151.311 298.648 151.624C298.532 151.936 298.473 152.304 298.473 152.727ZM266.58 171L264.117 162.273H265.817L267.39 168.686H267.471L269.15 162.273H270.697L272.38 168.69H272.457L274.029 162.273H275.729L273.266 171H271.707L269.96 164.876H269.891L268.14 171H266.58ZM277.973 171.132C277.558 171.132 277.185 171.058 276.852 170.911C276.523 170.76 276.261 170.538 276.068 170.246C275.878 169.953 275.783 169.592 275.783 169.163C275.783 168.794 275.851 168.489 275.987 168.247C276.124 168.006 276.31 167.813 276.545 167.668C276.781 167.523 277.047 167.413 277.342 167.34C277.641 167.263 277.949 167.207 278.267 167.173C278.651 167.134 278.962 167.098 279.2 167.067C279.439 167.033 279.612 166.982 279.72 166.913C279.831 166.842 279.886 166.733 279.886 166.585V166.56C279.886 166.239 279.791 165.99 279.601 165.814C279.411 165.638 279.136 165.55 278.778 165.55C278.401 165.55 278.101 165.632 277.879 165.797C277.661 165.962 277.513 166.156 277.436 166.381L275.996 166.176C276.109 165.778 276.297 165.446 276.558 165.179C276.82 164.909 277.139 164.707 277.517 164.574C277.895 164.438 278.313 164.369 278.77 164.369C279.085 164.369 279.399 164.406 279.712 164.48C280.024 164.554 280.31 164.676 280.568 164.847C280.827 165.014 281.034 165.243 281.19 165.533C281.349 165.823 281.429 166.185 281.429 166.619V171H279.946V170.101H279.895C279.801 170.283 279.669 170.453 279.499 170.612C279.331 170.769 279.119 170.895 278.864 170.992C278.611 171.085 278.314 171.132 277.973 171.132ZM278.374 169.999C278.683 169.999 278.952 169.938 279.179 169.815C279.406 169.69 279.581 169.526 279.703 169.321C279.828 169.117 279.891 168.894 279.891 168.652V167.881C279.842 167.921 279.76 167.957 279.643 167.992C279.53 168.026 279.402 168.055 279.26 168.081C279.118 168.107 278.977 168.129 278.838 168.149C278.699 168.169 278.578 168.186 278.476 168.2C278.246 168.232 278.04 168.283 277.858 168.354C277.676 168.425 277.533 168.524 277.428 168.652C277.322 168.777 277.27 168.939 277.27 169.138C277.27 169.422 277.374 169.636 277.581 169.781C277.788 169.926 278.053 169.999 278.374 169.999ZM284.523 162.273V171H282.98V162.273H284.523ZM287.652 162.273V171H286.109V162.273H287.652ZM292.136 171.128C291.479 171.128 290.913 170.992 290.435 170.719C289.961 170.443 289.596 170.054 289.34 169.551C289.085 169.046 288.957 168.45 288.957 167.766C288.957 167.092 289.085 166.501 289.34 165.993C289.599 165.482 289.96 165.084 290.423 164.8C290.886 164.513 291.43 164.369 292.055 164.369C292.458 164.369 292.839 164.435 293.197 164.565C293.558 164.693 293.876 164.892 294.151 165.162C294.43 165.432 294.648 165.776 294.808 166.193C294.967 166.608 295.046 167.102 295.046 167.676V168.149H289.681V167.109H293.567C293.565 166.814 293.501 166.551 293.376 166.321C293.251 166.088 293.076 165.905 292.852 165.771C292.63 165.638 292.371 165.571 292.076 165.571C291.761 165.571 291.484 165.648 291.245 165.801C291.006 165.952 290.82 166.151 290.687 166.398C290.556 166.642 290.489 166.911 290.487 167.203V168.111C290.487 168.492 290.556 168.818 290.695 169.091C290.835 169.361 291.029 169.568 291.279 169.713C291.529 169.855 291.822 169.926 292.157 169.926C292.381 169.926 292.585 169.895 292.766 169.832C292.948 169.767 293.106 169.672 293.239 169.547C293.373 169.422 293.474 169.267 293.542 169.082L294.982 169.244C294.891 169.625 294.718 169.957 294.462 170.242C294.21 170.523 293.886 170.742 293.491 170.898C293.096 171.051 292.644 171.128 292.136 171.128ZM299.62 164.455V165.648H295.857V164.455H299.62ZM296.786 162.886H298.328V169.031C298.328 169.239 298.36 169.398 298.422 169.509C298.488 169.617 298.573 169.69 298.678 169.73C298.783 169.77 298.9 169.79 299.027 169.79C299.124 169.79 299.212 169.783 299.292 169.769C299.374 169.754 299.436 169.742 299.479 169.73L299.739 170.936C299.657 170.965 299.539 170.996 299.385 171.03C299.235 171.064 299.05 171.084 298.831 171.09C298.445 171.101 298.097 171.043 297.787 170.915C297.478 170.784 297.232 170.582 297.05 170.31C296.871 170.037 296.783 169.696 296.786 169.287V162.886Z" fill="#AEADAD"/>
<path d="M368.631 149.672C368.591 149.3 368.424 149.01 368.128 148.803C367.836 148.595 367.455 148.492 366.986 148.492C366.657 148.492 366.374 148.541 366.138 148.641C365.902 148.74 365.722 148.875 365.597 149.046C365.472 149.216 365.408 149.411 365.405 149.629C365.405 149.811 365.446 149.969 365.529 150.102C365.614 150.236 365.729 150.349 365.874 150.443C366.019 150.534 366.179 150.611 366.355 150.673C366.532 150.736 366.709 150.788 366.888 150.831L367.706 151.036C368.036 151.112 368.353 151.216 368.657 151.347C368.963 151.477 369.238 151.642 369.479 151.841C369.723 152.04 369.917 152.28 370.059 152.561C370.201 152.842 370.272 153.172 370.272 153.55C370.272 154.061 370.141 154.511 369.88 154.901C369.618 155.287 369.24 155.59 368.746 155.808C368.255 156.024 367.659 156.132 366.961 156.132C366.282 156.132 365.692 156.027 365.192 155.817C364.695 155.607 364.306 155.3 364.025 154.896C363.746 154.493 363.596 154.001 363.573 153.422H365.128C365.151 153.726 365.245 153.979 365.409 154.18C365.574 154.382 365.789 154.533 366.053 154.632C366.32 154.732 366.618 154.781 366.948 154.781C367.292 154.781 367.593 154.73 367.851 154.628C368.113 154.523 368.317 154.378 368.465 154.193C368.613 154.006 368.688 153.787 368.691 153.537C368.688 153.31 368.621 153.122 368.49 152.974C368.36 152.824 368.176 152.699 367.941 152.599C367.708 152.497 367.435 152.406 367.123 152.327L366.13 152.071C365.411 151.886 364.843 151.607 364.425 151.232C364.01 150.854 363.803 150.352 363.803 149.727C363.803 149.213 363.942 148.763 364.221 148.376C364.502 147.99 364.884 147.69 365.367 147.477C365.85 147.261 366.397 147.153 367.007 147.153C367.627 147.153 368.169 147.261 368.635 147.477C369.104 147.69 369.472 147.987 369.739 148.368C370.006 148.746 370.144 149.18 370.152 149.672H368.631ZM372.572 158.455C372.362 158.455 372.167 158.438 371.988 158.403C371.812 158.372 371.671 158.335 371.566 158.293L371.924 157.091C372.148 157.156 372.349 157.188 372.525 157.185C372.701 157.182 372.856 157.126 372.989 157.019C373.126 156.913 373.241 156.737 373.335 156.49L373.467 156.136L371.093 149.455H372.729L374.238 154.398H374.306L375.819 149.455H377.46L374.839 156.793C374.717 157.139 374.555 157.436 374.353 157.683C374.151 157.933 373.904 158.124 373.612 158.254C373.322 158.388 372.975 158.455 372.572 158.455ZM380.07 152.165V156H378.527V149.455H380.001V150.567H380.078C380.229 150.2 380.469 149.909 380.798 149.693C381.131 149.477 381.541 149.369 382.03 149.369C382.482 149.369 382.875 149.466 383.21 149.659C383.548 149.852 383.81 150.132 383.994 150.499C384.182 150.865 384.274 151.31 384.271 151.832V156H382.729V152.071C382.729 151.634 382.615 151.291 382.388 151.044C382.163 150.797 381.852 150.673 381.455 150.673C381.185 150.673 380.945 150.733 380.734 150.852C380.527 150.969 380.364 151.138 380.244 151.359C380.128 151.581 380.07 151.849 380.07 152.165ZM388.695 156.128C388.041 156.128 387.48 155.984 387.011 155.698C386.545 155.411 386.186 155.014 385.933 154.509C385.683 154 385.558 153.415 385.558 152.753C385.558 152.088 385.686 151.501 385.942 150.993C386.197 150.482 386.558 150.084 387.024 149.8C387.493 149.513 388.047 149.369 388.686 149.369C389.217 149.369 389.688 149.467 390.097 149.663C390.509 149.857 390.837 150.131 391.081 150.486C391.325 150.838 391.464 151.25 391.499 151.722H390.024C389.964 151.406 389.822 151.144 389.598 150.933C389.376 150.72 389.08 150.614 388.707 150.614C388.392 150.614 388.115 150.699 387.876 150.869C387.638 151.037 387.452 151.278 387.318 151.594C387.188 151.909 387.122 152.287 387.122 152.727C387.122 153.173 387.188 153.557 387.318 153.878C387.449 154.196 387.632 154.442 387.868 154.615C388.107 154.786 388.386 154.871 388.707 154.871C388.935 154.871 389.138 154.828 389.317 154.743C389.499 154.655 389.651 154.528 389.773 154.364C389.895 154.199 389.979 153.999 390.024 153.763H391.499C391.462 154.226 391.325 154.636 391.089 154.994C390.854 155.349 390.533 155.628 390.126 155.83C389.72 156.028 389.243 156.128 388.695 156.128ZM359.221 164.672C359.181 164.3 359.013 164.01 358.718 163.803C358.425 163.595 358.045 163.492 357.576 163.492C357.246 163.492 356.964 163.541 356.728 163.641C356.492 163.74 356.312 163.875 356.187 164.046C356.062 164.216 355.998 164.411 355.995 164.629C355.995 164.811 356.036 164.969 356.119 165.102C356.204 165.236 356.319 165.349 356.464 165.443C356.609 165.534 356.769 165.611 356.945 165.673C357.121 165.736 357.299 165.788 357.478 165.831L358.296 166.036C358.626 166.112 358.942 166.216 359.246 166.347C359.553 166.477 359.827 166.642 360.069 166.841C360.313 167.04 360.506 167.28 360.648 167.561C360.79 167.842 360.862 168.172 360.862 168.55C360.862 169.061 360.731 169.511 360.469 169.901C360.208 170.287 359.83 170.59 359.336 170.808C358.844 171.024 358.249 171.132 357.55 171.132C356.871 171.132 356.282 171.027 355.782 170.817C355.285 170.607 354.896 170.3 354.614 169.896C354.336 169.493 354.185 169.001 354.163 168.422H355.718C355.741 168.726 355.835 168.979 355.999 169.18C356.164 169.382 356.379 169.533 356.643 169.632C356.91 169.732 357.208 169.781 357.538 169.781C357.881 169.781 358.183 169.73 358.441 169.628C358.702 169.523 358.907 169.378 359.055 169.193C359.202 169.006 359.278 168.787 359.281 168.537C359.278 168.31 359.211 168.122 359.08 167.974C358.95 167.824 358.766 167.699 358.531 167.599C358.298 167.497 358.025 167.406 357.712 167.327L356.719 167.071C356.001 166.886 355.433 166.607 355.015 166.232C354.6 165.854 354.393 165.352 354.393 164.727C354.393 164.213 354.532 163.763 354.81 163.376C355.092 162.99 355.474 162.69 355.957 162.477C356.44 162.261 356.987 162.153 357.597 162.153C358.217 162.153 358.759 162.261 359.225 162.477C359.694 162.69 360.062 162.987 360.329 163.368C360.596 163.746 360.734 164.18 360.742 164.672H359.221ZM367.014 164.672C366.974 164.3 366.806 164.01 366.511 163.803C366.218 163.595 365.838 163.492 365.369 163.492C365.039 163.492 364.757 163.541 364.521 163.641C364.285 163.74 364.105 163.875 363.98 164.046C363.855 164.216 363.791 164.411 363.788 164.629C363.788 164.811 363.829 164.969 363.912 165.102C363.997 165.236 364.112 165.349 364.257 165.443C364.402 165.534 364.562 165.611 364.738 165.673C364.914 165.736 365.092 165.788 365.271 165.831L366.089 166.036C366.419 166.112 366.735 166.216 367.039 166.347C367.346 166.477 367.62 166.642 367.862 166.841C368.106 167.04 368.299 167.28 368.441 167.561C368.583 167.842 368.654 168.172 368.654 168.55C368.654 169.061 368.524 169.511 368.262 169.901C368.001 170.287 367.623 170.59 367.129 170.808C366.637 171.024 366.042 171.132 365.343 171.132C364.664 171.132 364.075 171.027 363.575 170.817C363.078 170.607 362.689 170.3 362.407 169.896C362.129 169.493 361.978 169.001 361.956 168.422H363.511C363.534 168.726 363.627 168.979 363.792 169.18C363.957 169.382 364.172 169.533 364.436 169.632C364.703 169.732 365.001 169.781 365.331 169.781C365.674 169.781 365.975 169.73 366.234 169.628C366.495 169.523 366.7 169.378 366.848 169.193C366.995 169.006 367.071 168.787 367.074 168.537C367.071 168.31 367.004 168.122 366.873 167.974C366.743 167.824 366.559 167.699 366.324 167.599C366.091 167.497 365.818 167.406 365.505 167.327L364.512 167.071C363.794 166.886 363.225 166.607 362.808 166.232C362.393 165.854 362.186 165.352 362.186 164.727C362.186 164.213 362.325 163.763 362.603 163.376C362.885 162.99 363.267 162.69 363.75 162.477C364.233 162.261 364.779 162.153 365.39 162.153C366.01 162.153 366.552 162.261 367.018 162.477C367.487 162.69 367.855 162.987 368.122 163.368C368.389 163.746 368.527 164.18 368.535 164.672H367.014ZM370.064 171V162.273H373.337C374.007 162.273 374.57 162.398 375.024 162.648C375.482 162.898 375.827 163.242 376.06 163.679C376.295 164.114 376.413 164.608 376.413 165.162C376.413 165.722 376.295 166.219 376.06 166.653C375.824 167.088 375.476 167.43 375.016 167.68C374.555 167.928 373.989 168.051 373.315 168.051H371.146V166.751H373.102C373.494 166.751 373.815 166.683 374.065 166.547C374.315 166.411 374.5 166.223 374.619 165.984C374.741 165.746 374.803 165.472 374.803 165.162C374.803 164.852 374.741 164.58 374.619 164.344C374.5 164.108 374.314 163.925 374.061 163.794C373.811 163.661 373.489 163.594 373.094 163.594H371.645V171H370.064ZM380.763 171V162.273H382.344V166.283H382.451L385.855 162.273H387.786L384.411 166.189L387.816 171H385.915L383.311 167.259L382.344 168.401V171H380.763ZM391.233 171.128C390.577 171.128 390.01 170.992 389.533 170.719C389.059 170.443 388.694 170.054 388.438 169.551C388.182 169.046 388.054 168.45 388.054 167.766C388.054 167.092 388.182 166.501 388.438 165.993C388.696 165.482 389.057 165.084 389.52 164.8C389.983 164.513 390.527 164.369 391.152 164.369C391.556 164.369 391.936 164.435 392.294 164.565C392.655 164.693 392.973 164.892 393.249 165.162C393.527 165.432 393.746 165.776 393.905 166.193C394.064 166.608 394.144 167.102 394.144 167.676V168.149H388.779V167.109H392.665C392.662 166.814 392.598 166.551 392.473 166.321C392.348 166.088 392.174 165.905 391.949 165.771C391.728 165.638 391.469 165.571 391.174 165.571C390.858 165.571 390.581 165.648 390.343 165.801C390.104 165.952 389.918 166.151 389.784 166.398C389.654 166.642 389.587 166.911 389.584 167.203V168.111C389.584 168.492 389.654 168.818 389.793 169.091C389.932 169.361 390.127 169.568 390.377 169.713C390.627 169.855 390.919 169.926 391.255 169.926C391.479 169.926 391.682 169.895 391.864 169.832C392.046 169.767 392.203 169.672 392.337 169.547C392.471 169.422 392.571 169.267 392.64 169.082L394.08 169.244C393.989 169.625 393.816 169.957 393.56 170.242C393.307 170.523 392.983 170.742 392.588 170.898C392.194 171.051 391.742 171.128 391.233 171.128ZM396.22 173.455C396.01 173.455 395.815 173.438 395.636 173.403C395.46 173.372 395.32 173.335 395.214 173.293L395.572 172.091C395.797 172.156 395.997 172.188 396.173 172.185C396.349 172.182 396.504 172.126 396.638 172.019C396.774 171.913 396.889 171.737 396.983 171.49L397.115 171.136L394.741 164.455H396.378L397.886 169.398H397.955L399.467 164.455H401.108L398.487 171.793C398.365 172.139 398.203 172.436 398.001 172.683C397.8 172.933 397.553 173.124 397.26 173.254C396.97 173.388 396.624 173.455 396.22 173.455Z" fill="#AEADAD"/>
<path fill-rule="evenodd" clip-rule="evenodd" d="M99.6704 117.37C99.8815 117.606 100 117.927 100 118.261C100 118.596 99.8815 118.916 99.6704 119.153L91.2336 128.606C91.1221 128.731 90.9897 128.83 90.844 128.898C90.6984 128.965 90.5422 129 90.3845 129C90.2268 129 90.0707 128.965 89.925 128.898C89.7793 128.83 89.6469 128.731 89.5354 128.606L85.3436 123.91C85.2361 123.794 85.1504 123.655 85.0914 123.501C85.0324 123.347 85.0013 123.181 85 123.014C84.9987 122.846 85.0272 122.68 85.0838 122.525C85.1404 122.37 85.224 122.23 85.3297 122.111C85.4354 121.993 85.561 121.899 85.6994 121.836C85.8377 121.772 85.9859 121.74 86.1354 121.742C86.2849 121.743 86.4326 121.778 86.5699 121.844C86.7072 121.91 86.8314 122.006 86.9353 122.127L90.3841 125.991L98.0781 117.37C98.1826 117.252 98.3067 117.16 98.4433 117.096C98.5799 117.033 98.7264 117 98.8743 117C99.0221 117 99.1686 117.033 99.3052 117.096C99.4418 117.16 99.5659 117.252 99.6704 117.37Z" fill="#1677FF"/>
</g>
</g>
<defs>
<filter id="filter0_d_775_7567" x="0" y="0" width="470" height="389" filterUnits="userSpaceOnUse" color-interpolation-filters="sRGB">
<feFlood flood-opacity="0" result="BackgroundImageFix"/>
<feColorMatrix in="SourceAlpha" type="matrix" values="0 0 0 0 0 0 0 0 0 0 0 0 0 0 0 0 0 0 127 0" result="hardAlpha"/>
<feOffset dy="4"/>
<feGaussianBlur stdDeviation="12.5"/>
<feComposite in2="hardAlpha" operator="out"/>
<feColorMatrix type="matrix" values="0 0 0 0 0 0 0 0 0 0 0 0 0 0 0 0 0 0 0.25 0"/>
<feBlend mode="normal" in2="BackgroundImageFix" result="effect1_dropShadow_775_7567"/>
<feBlend mode="normal" in="SourceGraphic" in2="effect1_dropShadow_775_7567" result="shape"/>
</filter>
<clipPath id="clip0_775_7567">
<rect x="25" y="21" width="420" height="339" rx="8" fill="white"/>
</clipPath>
<clipPath id="clip1_775_7567">
<rect width="350" height="414" fill="white" transform="translate(60 220)"/>
</clipPath>
<clipPath id="clip2_775_7567">
<rect width="22.9412" height="30" fill="white" transform="translate(60.8369 37)"/>
</clipPath>
</defs>
</svg>
